<?xml version="1.0" encoding="UTF-8"?><svg id="Layer_1" xmlns="http://www.w3.org/2000/svg" width="3.7654in" height="2.6332in" viewBox="0 0 271.1111 189.5935"><path d="M101.2521,45.1417c12.08-5.74,24.12-11.68,36.44-16.9,9.2601,4.27,18.48,8.63,27.83,12.69,2.76,1.23,5.68,2.22,8.22,3.9.8701,1.09.41,2.62.58,3.91.02,8.15-.01,16.3-.04,24.46,2.11-1.03,4.16-2.31,6.47-2.83,11.44,4.83,22.61,10.3,33.95,15.38,1.19.66,3.11,1.11,2.83,2.89.07,15.36.03,30.73.03,46.09.58,2.54-2.2599,3-3.94,3.84-10.97,5-21.78,10.38-32.84,15.17-12.54-5.36-24.9-11.15-37.2-17.02-.13-9.51.11-19.01-.17-28.51-1.9399.83-3.86,1.66-5.78,2.51-1.37-.47-2.72-.96-4.07-1.46-.18,3.72-5.56,2.99-6.47,6.46-1.28,3.94,2.23,7.24,6.05,7.05.48,7.09.24,14.22.21,21.33-13.06,6.04-26.27,11.81-39.57,17.25-6.59-2.4-12.94-5.44-19.42-8.13-6.98-3-14.2-5.5201-20.88-9.2.14-6.85.01-13.7-.0099-20.55,2.79-1,6.92-1.99,6.75-5.76.14-3.67-3.6801-5.17-6.59-6.03-.12-6.35-.24-12.7.02-19.04,13.42-5.56,26.61-11.64,40.02-17.22,2.37,1.11,4.76,2.2101,7.17,3.28.36-11.17-.52-22.49.41-33.56" fill="#3b0d05"/><path d="M131.5321,35.7117c-8.12,3.27-15.88,7.37-23.83,11.02.55.25,1.66.76,2.21,1.01-1.52.83-3.02,1.69-4.49,2.59l-.53-.24c.16,10.13.02,20.25.05,30.38,9.31,4.14,18.84,7.82,28.07,12.12.57,2.3.26,4.71.3,7.06.06,2.2-.69,5.52,2.44,5.79,1.95.47,4.61.95,5.86-1.07.46-.25,1.4-.74,1.86-.99,0-.42,0-1.24.01-1.66,1.05-.41,2.11-.83,3.17-1.23.03-3.02.17-6.03.5399-9.02.4401.27,1.3201.81,1.7601,1.07l-1.36-.61c.1101,13.94-.21,27.89.1,41.82,1.45,1.69,3.92,2.13,5.84,3.2,8.23,3.9301,16.7,7.31,24.88,11.35,1.41-.02,2.82-.02,4.24.02,10.33-4.57,20.47-9.57,30.75-14.27.14-14.09-.12-28.18.0699-42.28-.2999.14-.9199.42-1.23.55-2.2599-.61-4.53-1.1299-6.84-1.4799,1.6-.75,3.2-1.51,4.8-2.28-9.54-5.14-19.71-9.07-29.39-13.95-1.85.82-3.7,1.64-5.53,2.5201-1.1-.9001-2.18-1.79-3.26-2.69-.77-7.9.18-15.84-.42-23.73-.43-2.83-4.09-2.03-5.64-3.88l1.09-.58c-9.86-4.4-19.7-8.88-29.5-13.42-2.04.89-4.0601,1.85-6.02,2.88" fill="#3b0d05"/><path d="M86.5021,83.1318c-8.6,3.5-17.13,7.22-25.48,11.28,10.89,4.6299,21.8,9.21,32.64,13.97,7.55-3.57,15.39-6.5,22.8-10.3701,3.37-1.04,6.4999-2.71,9.7299-4.12-10.8299-4.62-21.5999-9.41-32.5299-13.78-2.55.49-4.84,1.88-7.16,3.02" fill="#3b0d05"/><path d="M95.9921,112.0017c-.6,14.64.05,29.46-.32,44.17,11.16-4.94,22.43-9.62,33.57-14.62.13-4.99.04-9.99.1-14.98-3.31-1.81-6.58-4.78-6.54-8.85-.3601-4.27,2.91-7.64,6.47-9.41.04-3.78,0-7.56-.02-11.33-10.99,5.2-22.3,9.75-33.26,15.02" fill="#3b0d05"/><path d="M57.6221,97.2217c.01,3.8.01,7.61.09,11.42,3.61,1.57,6.8,4.8,6.72,8.98.37,4.31-3.1,7.62-6.79,9.13-.05,4.97.01,9.94-.05,14.91,11.43,4.68,22.66,9.83,34.11,14.47-.12-14.77.14-29.54.13-44.32-11.47-4.69-22.96-9.39-34.21-14.59h0Z" fill="#3b0d05"/><path d="M131.5321,35.7117c1.96-1.03,3.98-1.99,6.02-2.88,9.8,4.54,19.64,9.02,29.5,13.42l-1.09.58c-5.21,2.65-10.5201,5.11-15.88,7.46,2.68-4.16,8.32-4.82,12.15-7.66-5.9901-4.74-13.53-6.62-20.23-10.07-3.2-1.9-6.99-1.49-10.47-.85" fill="#f1bd7b"/><path d="M131.5321,35.7117c3.48-.64,7.27-1.05,10.47.85,6.7,3.45,14.24,5.33,20.23,10.07-3.83,2.84-9.47,3.5-12.15,7.66-4.13,2.1-8.31,4.1-12.48,6.1-9.2-4.29-18.53-8.28-27.69-12.65-.55-.25-1.66-.76-2.21-1.01,7.95-3.65,15.71-7.75,23.83-11.02h0Z" fill="#fcb35b"/><path d="M150.0821,54.2917c5.3599-2.35,10.67-4.81,15.88-7.46,1.55,1.85,5.21,1.05,5.64,3.88.6,7.89-.35,15.83.42,23.73,1.08.9,2.16,1.79,3.26,2.69-8.16,4.04-16.5599,7.57-24.75,11.55,10.01,4.72,20.08,9.34,30.2,13.84,8.2-3.94,16.42-7.84,24.67-11.68,2.31.35,4.58.87,6.84,1.4799-9.7599,4.56-19.55,9.05-29.3199,13.57-.12,14.15-.0801,28.28-.27,42.43-1.42-.04-2.83-.04-4.24-.02.6799-4.16.46-8.38.3-12.57-.12-9.92-.02-19.8499-.13-29.77-9.97-4.26-19.75-8.94-29.63-13.42-.44-.26-1.32-.8-1.7601-1.07-.3699,2.99-.5099,6-.5399,9.02-1.06.4-2.12.82-3.17,1.23.02-4.75,0-9.49-.05-14.23,7.8799-3.75,15.79-7.41,23.67-11.12,1.02-.51,2.05-1.01,3.07-1.52-.05-8.43-.06-16.86-.03-25.29-4.34,2.08-8.68,4.13-12.95,6.35-.7199.32-1.43.65-2.12,1-5.29,2.3-10.5999,4.57-15.61,7.44.2601,13.67.0201,27.34.1401,41.02.5-.25,1.5-.75,2.01-1-1.25,2.02-3.91,1.54-5.86,1.07-.42-13.79-.11-27.59-.23-41.39-10.05-4.55-20.04-9.2-30.1-13.72,1.47-.9,2.97-1.76,4.49-2.59,9.16,4.37,18.49,8.36,27.69,12.65,4.17-2,8.35-4,12.48-6.1" fill="#440d00"/><path d="M157.1921,55.9118c4.27-2.22,8.61-4.27,12.95-6.35-.03,8.43-.02,16.86.03,25.29-1.02.51-2.05,1.01-3.07,1.52,2.41-7.6,1.62-15.8.85-23.61-3.42,1.57-6.97,2.92-10.76,3.15h0Z" fill="#e49252"/><path d="M104.8921,50.0917l.53.24c10.06,4.52,20.05,9.17,30.1,13.72.12,13.8-.19,27.6.23,41.39-3.13-.27-2.38-3.59-2.44-5.79-.04-2.35.27-4.76-.3-7.06-9.23-4.3-18.76-7.98-28.07-12.12-.03-10.13.11-20.25-.05-30.38h0Z" fill="#f9a244"/><path d="M157.1921,55.9118c3.79-.23,7.34-1.58,10.76-3.15.77,7.81,1.56,16.01-.85,23.61-7.88,3.71-15.79,7.37-23.67,11.12-.5701-.06-1.73-.17-2.3101-.23.28-7.28-.6-14.63.3501-21.86,4.1699-3.42,10.5599-3.64,13.5999-8.49.69-.35,1.4001-.68,2.12-1h0Z" fill="#f08e32"/><path d="M139.4621,64.3517c5.0101-2.87,10.3201-5.14,15.61-7.44-3.04,4.85-9.43,5.0699-13.5999,8.49-.9501,7.23-.0701,14.58-.3501,21.86.5801.06,1.74.17,2.3101.23.05,4.74.0699,9.48.05,14.23-.01.42-.01,1.24-.01,1.66-.46.25-1.4.74-1.86.99-.51.25-1.51.75-2.01,1-.12-13.68.12-27.35-.1401-41.02h0Z" fill="#ed974f"/><path d="M175.2821,77.1318c1.83-.88,3.68-1.7,5.53-2.5201,9.68,4.88,19.85,8.81,29.39,13.95-1.6.77-3.2,1.53-4.8,2.28-8.25,3.84-16.47,7.74-24.67,11.68-10.1201-4.5-20.19-9.12-30.2-13.84,8.1901-3.98,16.59-7.51,24.75-11.55h0Z" fill="#fcbe69"/><path d="M86.5021,83.1318c2.32-1.14,4.61-2.53,7.16-3.02,10.93,4.37,21.7,9.16,32.5299,13.78-3.23,1.41-6.3599,3.08-9.7299,4.12-3.99.33-8.32.32-11.75,2.69-3.33,2.27-6.74,4.93-10.94,5.17-4.9-.75-9.24-3.39-13.67-5.47-4.46-2.38-9.43-3.69-13.72-6.4,6.66-3.62,16.43-3.1,20.12-10.87M77.5321,93.6918c2.19,1.09,5.2,1.94,7.09-.16.66-2.2-2.24-2.47-3.76-2.45-1.61-.01-2.31,1.66-3.33,2.61M97.2821,93.7518c1.8,4.87,9.8,4.14,12.06-.1-2.79-3.51-9.52-3.65-12.06.1h0Z" fill="#fdd58f"/><path d="M61.0221,94.4118c8.35-4.06,16.88-7.78,25.48-11.28-3.69,7.77-13.4601,7.25-20.12,10.87,4.29,2.71,9.26,4.02,13.72,6.4,4.43,2.08,8.7701,4.72,13.67,5.47,4.2-.24,7.61-2.9,10.94-5.17,3.43-2.37,7.76-2.36,11.75-2.69-7.41,3.8701-15.25,6.8-22.8,10.3701-10.84-4.76-21.75-9.3401-32.64-13.97h0Z" fill="#fedaa6"/><path d="M77.5321,93.6918c1.02-.95,1.72-2.62,3.33-2.61,1.52-.02,4.42.25,3.76,2.45-1.89,2.1-4.9,1.25-7.09.16h0Z" fill="#e5a248"/><path d="M97.2821,93.7518c2.5399-3.75,9.27-3.61,12.06-.1-2.26,4.24-10.26,4.97-12.06.1h0Z" fill="#ea993a"/><path d="M212.2421,92.3217c.3101-.1299.9301-.4099,1.23-.55-.1899,14.1.0701,28.19-.0699,42.28-10.28,4.7-20.42,9.7-30.75,14.27.1899-14.15.15-28.28.27-42.43,9.77-4.52,19.56-9.01,29.3199-13.57M189.0721,104.9418c-1.58.99-4.4299,1.2899-4.2999,3.68-.85,6.08.15,12.13.95,18.14-.29,5.54-2.28,11.23.1801,16.61,9.35-1.01,16.87-7.17,25.56-10.21-.08-12.48.2199-24.96-.0101-37.44-8.0699,1.34-14.9099,6.2-22.38,9.22h0Z" fill="#f19544"/><path d="M147.5921,91.9317l1.36.61c9.88,4.48,19.66,9.16,29.63,13.42.11,9.92.01,19.85.13,29.77.16,4.19.3799,8.41-.3,12.57-8.18-4.04-16.65-7.42-24.88-11.35-1.92-1.07-4.39-1.51-5.84-3.2-.31-13.93.0101-27.88-.1-41.82h0Z" fill="#faa445"/><path d="M189.0721,104.9418c7.4701-3.02,14.3101-7.88,22.38-9.22.23,12.48-.0699,24.96.0101,37.44-8.69,3.0399-16.21,9.2-25.56,10.21-2.46-5.38-.4701-11.07-.1801-16.61-.7999-6.0099-1.7999-12.06-.95-18.14-.13-2.39,2.72-2.69,4.2999-3.68h0Z" fill="#f08e31"/><path d="M95.9921,112.0017c10.96-5.27,22.27-9.82,33.26-15.02.02,3.77.06,7.55.02,11.33-3.56,1.77-6.8301,5.14-6.47,9.41-.04,4.07,3.23,7.04,6.54,8.85-.06,4.99.03,9.99-.1,14.98-11.14,5-22.41,9.68-33.57,14.62.37-14.71-.28-29.53.32-44.17M108.0521,115.0617c-4.68,2.1-6.6,10.29-1.29,12.73,4.96,2.03,9.51-3.44,8.84-8.16.28-3.75-4.37-6.46-7.55-4.57M103.1421,145.2317c2.03.88,4.83.9601,5.71-1.52,1.44-1.99-.67-5.25-3.08-4.25-2.54.77-2.74,3.55-2.63,5.77h0Z" fill="#fbbe68"/><path d="M57.6221,97.2217c11.25,5.2,22.74,9.9,34.21,14.59.01,14.78-.25,29.55-.13,44.32-11.45-4.64-22.68-9.79-34.11-14.47.06-4.97,0-9.94.05-14.91,3.69-1.51,7.16-4.82,6.79-9.13.08-4.18-3.11-7.41-6.72-8.98-.08-3.81-.08-7.62-.09-11.42M72.0721,112.0017c-3.62.87-2.19,7.56,1.62,6.54,4-.67,2.25-7.72-1.62-6.54M77.0821,132.0918c-3.39,1.14-3.63,5.69-2.22,8.43,1.65,3.23,7.08,4.98,9.17,1.26,3.05-4.44-1.53-11.63-6.95-9.69h0Z" fill="#fdcf86"/><path d="M72.0721,112.0017c3.87-1.18,5.62,5.87,1.62,6.54-3.81,1.02-5.24-5.67-1.62-6.54h0Z" fill="#eb9a3d"/><path d="M108.0521,115.0617c3.18-1.89,7.83.82,7.55,4.57.67,4.72-3.8799,10.1899-8.84,8.16-5.31-2.44-3.39-10.63,1.29-12.73h0Z" fill="#ec8828"/><path d="M77.0821,132.0918c5.42-1.94,10,5.25,6.95,9.69-2.09,3.72-7.52,1.97-9.17-1.26-1.41-2.74-1.17-7.29,2.22-8.43h0Z" fill="#ee8b2b"/><path d="M103.1421,145.2317c-.11-2.22.09-5,2.63-5.77,2.41-1,4.52,2.26,3.08,4.25-.8799,2.48-3.68,2.4-5.71,1.52h0Z" fill="#ea9236"/></svg>