<?xml version="1.0" encoding="UTF-8"?><svg id="Layer_1" xmlns="http://www.w3.org/2000/svg" width="3.7654in" height="2.6332in" viewBox="0 0 271.1111 189.5935"><polygon points="191.0554 71.6346 187.9316 123.3072 80.0556 150.6388 83.1795 98.9662 191.0554 71.6346" fill="#fcbe69"/><path d="M114.5764,38.9547c33.4618,5.9002,60.2354,17.9544,76.479,32.6799l-107.8759,27.3316,31.3969-60.0115Z" fill="#d17f3b" stroke="#3b0d05" stroke-linecap="round" stroke-linejoin="round" stroke-width="4"/><path d="M89.7257,102.1696c-1.5556,1.5556-3.3333,37.3333-3.3333,39.5556s3.1111,2.4444,8.2222,0,43.3333-9.7778,52-12.4444,30.5189-6.7412,32.6667-8.8889,2.8148-28.4444,2.8148-34.2222-2.1481-6.8889-7.4815-5.5556-19.7778,8.6049-31.7778,9.9691-31.3333,7.1795-38.6667,8.383-12.4444,1.2035-14.4444,3.2035Z" fill="#f4c48c"/><path d="M179.5411,125.433c-3.943.999,8.3905-2.1258,8.3905-2.1258l3.1239-51.6726-8.9594,1.6912c1.1058,0,3.3561,5.1078,2.8133,10.9201-.8139,8.7167-3.5739,22.9398-2.6308,28.7257,1.1396,6.9913-1.6918,12.1965-2.7376,12.4615Z" fill="#d17f3b"/><polygon points="191.0554 71.6346 187.9316 123.3072 80.0556 150.6388 83.1795 98.9662 191.0554 71.6346" fill="none" stroke="#3b0d05" stroke-linecap="round" stroke-linejoin="round" stroke-width="4"/></svg>