<?xml version="1.0" encoding="UTF-8"?><svg id="Layer_1" xmlns="http://www.w3.org/2000/svg" width="3.7654in" height="2.6332in" viewBox="0 0 271.1111 189.5935"><path d="M89.6681,33.8455c.59,3.77,3.2099,7.04,3.0699,10.96-.02,3.26-2.13,5.91-2.95,8.95.01,3.55,3.35,6.44,2.5201,10.14-.72,3.25-2.6201,6.11-3.0901,9.45,2.52-1.16,4.74-2.93,7.36-3.87,3.69-1.3,7.12,2.94,10.73,1.02,3.5699-1.74,6.8699-5.21,11.21-4.18-.37,1.37-.6501,2.91.46,4.06-5.22-1.01-8.3099,4.89-13.37,4.76-2.42-.16-4.6599-1.18-7.04-1.58-2.97.56-5.05,3.29-8.08,3.7401-2.73.49-5.27-.96-7.92-1.27-3.38.41-5.62,3.7-9.03,4.08-2.89.35-5.67-.99-8.55-.85-3.05,1.52-5.69,4.41-9.4,4.09-3.5601.22-7.54-2.56-10.83-.39-2.65,3.43,1.27,6.86,2.65,9.89,2.18,3.81.07,8.01-.23,11.97,1,2.77,3.59,4.91,3.67,8.02-.11,2.42-1.33,4.62-1.56,7.02.39,3.03,3.24,5.03,3.81,8.02.45,2.71-1.1,5.18-1.25,7.85.91,2.83,3.33,5,3.83,8,.67,3.45-1.09,6.71-1.42,10.1-.3,2.36,1.83,4.84,4.3,4.34,3.66-.82,6.23-4.28,10.1-4.58,3.07-.52,5.8799,1.49,8.91,1.29,2.2-1.05,3.9999-2.84,6.32-3.65,3.25-.96,6.42.89,9.65,1.03,3.15-.95,5.57-3.8,9.04-3.82,3.15-.36,6.6201,2.14,9.43-.17,2.9799-2.27,6.68-3.97,10.5-2.86,2.81.29,7.03,2.36,8.81-.87,1.64-3.49-2.07-6.14-3.42-9.01-2.5-3.57-.64-7.9-.13-11.75-.21-2.97-3.02-5.0099-3.44-7.94-.07-2.2299.92-4.31,1.47-6.43.1,2.14,1.85,3.47,3.43,4.61l.05-.4001c4.66-.67,8.64-3.78,13.5-3.77.13-2.55-.03-5.11.27-7.64.64-3.1501,3.33-5.21,5.36-7.47-.14-2.83-.94-5.95.58-8.55,1.27-2.36,3.82-3.84,4.8-6.35.27-3.77-.86-7.96,1.43-11.3,2.3-3.55,7.78-4.17,10.91-1.38,2.02,1.8,3.83,3.84,6.07,5.39-.57-3.03-1.91-5.82-2.72-8.77-.9-3.67,2.48-6.5099,2.72-10-.68-3.07-2.96-5.69-2.83-8.96-.14-3.92,2.27-7.24,2.99-10.97.35-2.85-3.1-5.53-5.69-4.03-3.87,1.66-8.23,4.57-12.49,2.37-2.42-.85-4.8-3.72-7.45-2.08-2.05.7899-4,1.96-6.22,2.2299-3.66.35-6.36-3.14-9.97-2.97-2.84.55-5.03,3.02-8.03,3.05-3.22.02-5.89-2.09-8.91-2.86-2.76.62-5.06,2.52-7.86,2.99-4,.48-7.43-1.99-11.17-2.88-2.5601-.81-5.15,1.61-4.9,4.18" fill="#370c06"/><path d="M159.6481,69.8855c-2.73,1.61-1.44,5.27-1.7,7.84.34,3.41-1.54,6.36-3.97,8.54-3.48,2.79.04,7.97-2.69,11.19-1.28,1.89-3.41,3.2-4.22,5.39-.13,2.29.28,4.61-.03,6.9-.6,2.54-2.94,4.04-4.4,6.06-.13,4.04,1.16,8.76-2.04,12.01-1.83,2.62-6.48,5.49-3.95,9.06,2.96,1.81,6.76.18,10.04.88,3.61.25,5.49,3.72,8.26,5.5,2.5.37,5.06,0,7.54.54,2.89.82,4.95,3.21,7.58,4.54,2.76.41,5.66-.28,8.34.68,2.3,1.07,3.88,3.24,6.14,4.37,3.12.33,6.45-.42,9.38,1.04,2.45,1.03,3.93,3.34,5.96,4.94,1.54,1.3,4.46.78,4.92-1.36.79-2.97-.03-6.08.39-9.09.46-2.89,2.79-4.86,4.51-7.03,1.8-1.91.82-4.78,1.19-7.12.02-3.41,3.48-5.19,4.82-8,.53-2.5-.18-5.08.31-7.58.99-2.86,4.18-4.41,4.88-7.41.04-2.53-1.02-5.17.06-7.6,1.28-3.14,4.54-4.84,6.05-7.82.87-1.82-.52-4.01-2.4-4.39-2.97-.62-6.05.15-9.02-.48-3.2-.95-5.24-3.79-7.99-5.49-2.56-.48-5.23.02-7.76-.6-2.44-.98-4.11-3.18-6.41-4.39-2.5-.4-5.08.11-7.54-.54-2.51-.93-4.34-2.99-6.63-4.3-3.73-.43-8.07.94-11.23-1.82-2.62-1.64-4.89-5.73-8.39-4.46" fill="#370c06"/><path d="M226.538,87.9855c-3.37-1.36-7.0701.14-10.49-.7601-2.31-1.56-3.96-4.05-6.6201-5.1-2.46-1.19-5.24-.51-7.85-.78-2.52-1.13-4.39-3.4-7.03-4.33-2.4399-.96-5.08-.35-7.61-.55-3.24-2.05-5.92-5.63-10.2-5.08-.8799-2.91-1.97-5.75-3.2-8.52,1.08-2.98,2.84-5.86,2.76-9.12-.08-2.89-1.94-5.25-2.9-7.87-.25-3.24,1.67-6.07,2.65-9.03,1.64-4.6801-1.32-10.7401-6.48-11.3701-4.03-.8-7.24,2.3201-10.96,3.11-3.42.5601-5.88-2.4399-9.03-3.0699-3.62-.53-6.5,2.46-9.99,2.66-3.14-.41-5.65-3.1-8.95-2.83-4.07-.15-7.65,4.49-11.68,1.96-3.58-2.41-8.13-2.3-11.6.24-5.0001,3.44-9.5201-3.15-14.73-2.07-5.25.39-8.49,6.59-6.69,11.3,1.14,3.7401,4.02,8.0101,1.38,11.77-2.95,4.51-1.02,9.83.87,14.31-.84,3.08-2.38,5.95-2.95,9.1301-4.78-1.04-8.71,1.98-12.64,4.0999-2.73-.27-5.3699-1.58-8.15-1.0099-3.44.3-5.35,4.27-8.86,4.23-3.53-.52-7.12-2.39-10.69-1.05-4.1801,1.4-6.4,6.58-4.4901,10.57,1.4301,3.52,5.3,6.88,3.22,10.96-1.43,3.78-.62,7.95,1.94,11.03,1.84,2.06.14,4.68-.1201,7-.96,4.02,1.5,7.61,3.59,10.79-.78,3-1.91,6.1299-1.09,9.2399.6199,2.55,2.88,4.31,3.5699,6.82.1901,4.11-2.45,8.0601-1.09,12.1801,1.07,3.8199,5.36,6.04,9.16,5.4,3.39-.52,5.72-3.38,8.86-4.53,3.12-.59,5.98,1.79,9.1299,1.36,3.07-.4,5.26-2.84,8.05-3.95,2.99.34,5.89,1.94,8.95,1.24,2.93-.62,5.13-2.87,7.91-3.86,3.03-.12,6.03,1.45,9.04.65,2.82-1.08,5.19-3.1,8.12-3.9,3.93.44,8.03,2.61,11.9.59,3.5601-1.23,4.6201-5.3199,4.34-8.7,4.04,2.13,9.34-.9,12.78,2.48,1.58,1.3,2.95,2.94,4.8799,3.76,2.5601,1.01,5.3801.06,7.9901.71,2.72,1.3,4.85,3.7601,7.85,4.48,2.37.35,4.79-.04,7.16.35,2.74,1.41,4.63,4.59,7.98,4.69,3.31.33,7.45-.75,9.72,2.41,2.77,3.62,8.26,5.9401,12.2,2.69,4.24-3.4,2.34-9.25,3.01-13.88,1.83-2.47,4.72-4.23,5.58-7.35,1.03-2.85-1-6.4999,1.73-8.68,3.51-3.05,4.17-7.91,3.34-12.27,1.7599-2.29,4.2-4.29,4.85-7.23.46-2.47-.02-4.97.13-7.45.89-2.7,3.94-3.83,5.21-6.3199,2.33-3.8801.89-10.16-3.76-11.55ZM138.118,123.3954c-1.87,3.67-5.64,6.16-6.54,10.39-1.84-2.05-.44-4.7999.11-7.08,1.2-3.11-.02-6.46-1.82-9.06,3.03-.2501,5.82-1.48,8.51-2.82-.37,2.84.07,5.73-.26,8.5699Z" fill="#370c06"/><path d="M89.6681,33.8455c-.2501-2.57,2.3399-4.99,4.9-4.18,3.7401.89,7.17,3.36,11.17,2.88,2.8-.47,5.1-2.37,7.86-2.99,3.02.77,5.69,2.88,8.91,2.86,3-.03,5.19-2.5,8.03-3.05,3.61-.17,6.31,3.32,9.97,2.97,2.22-.27,4.17-1.44,6.22-2.2299,2.65-1.64,5.03,1.23,7.45,2.08,4.26,2.2,8.62-.71,12.49-2.37,2.59-1.5,6.04,1.18,5.69,4.03-.72,3.73-3.13,7.05-2.99,10.97-.13,3.27,2.15,5.89,2.83,8.96-.24,3.49-3.62,6.33-2.72,10,.81,2.95,2.15,5.74,2.72,8.77-2.24-1.55-4.05-3.59-6.07-5.39-3.13-2.79-8.61-2.17-10.91,1.38-2.29,3.34-1.16,7.53-1.43,11.3-.98,2.51-3.53,3.99-4.8,6.35-1.52,2.6-.72,5.72-.58,8.55-2.03,2.26-4.72,4.3199-5.36,7.47-.3,2.53-.14,5.09-.27,7.64-4.86-.01-8.84,3.1-13.5,3.77.22-2.24.68-4.5099.35-6.7599-.53-2.88-2.77-5.08-3.46-7.89.3-2.41,1.13-4.75,1.13-7.19-.15-2.26-1.67-4.07-2.7-5.99-3.21-4.49,1.45-9.88-.52-14.7-.86-2.48-3.22-3.92-5.56-4.77-4.3401-1.03-7.64,2.44-11.21,4.18-3.61,1.92-7.04-2.32-10.73-1.02-2.6201.94-4.84,2.71-7.36,3.87.47-3.34,2.3701-6.2,3.0901-9.45.83-3.7-2.5101-6.59-2.5201-10.14.82-3.04,2.9301-5.69,2.95-8.95.14-3.92-2.48-7.19-3.0699-10.96M105.518,49.7955c.48,1.74,3.33,1.74,3.93.0699,1.33-1.61-1.11-2.88-1.87-3.95-.77,1.07-3.26,2.23-2.06,3.88M152.678,46.8455c-1.88,1.41-.74,4.84,1.77,4.11,2.46.0099,1.61-3.03,1.2-4.47-.74.09-2.23.27-2.97.36M140.8681,58.2255c-2.07,2.02.74,5.41,3.12,3.91,2.81-1.75-.65-6.49-3.12-3.91M128.758,70.9855c-.82,1.54,1.13,3.57,2.79,2.85,2.12-.23,1.36-2.94,1.21-4.32-1.39.27-3.49-.37-4,1.47M128.608,92.6555c.05.75.14,2.25.18,3,1.23.36,2.45.74,3.68,1.11.23-1.29,1.29-2.78.1-3.91-1.14-1.08-2.66-.61-3.96-.2h0Z" fill="#de9854"/><path d="M105.608,75.1355c5.0601.13,8.15-5.77,13.37-4.76,2.93,3.32.46,7.7.29,11.52-.5901,4.12,3.14,7.09,3.82,10.93-.3,2.37-1.17,4.64-1.27,7.03.83,3.39,3.87,5.9,3.98,9.55-.55,2.12-1.54,4.2-1.47,6.43.42,2.9301,3.23,4.97,3.44,7.94-.51,3.85-2.37,8.1801.13,11.75,1.35,2.87,5.06,5.52,3.42,9.01-1.78,3.23-6,1.16-8.81.87-3.82-1.11-7.5201.59-10.5,2.86-2.81,2.31-6.28-.19-9.43.17-3.47.0201-5.89,2.87-9.04,3.82-3.23-.14-6.4-1.99-9.65-1.03-2.3201.81-4.1201,2.6-6.32,3.65-3.03.2-5.84-1.81-8.91-1.29-3.8701.3-6.4401,3.76-10.1,4.58-2.47.5-4.6-1.98-4.3-4.34.33-3.39,2.09-6.65,1.42-10.1-.5-3-2.92-5.17-3.83-8,.15-2.67,1.7-5.14,1.25-7.85-.57-2.99-3.42-4.99-3.81-8.02.23-2.4,1.45-4.6,1.56-7.02-.08-3.11-2.67-5.25-3.67-8.02.3-3.96,2.41-8.16.23-11.97-1.38-3.03-5.3-6.46-2.65-9.89,3.29-2.17,7.27.61,10.83.39,3.71.32,6.35-2.57,9.4-4.09,2.88-.14,5.66,1.2,8.55.85,3.41-.38,5.65-3.67,9.03-4.08,2.65.31,5.19,1.76,7.92,1.27,3.03-.45,5.11-3.18,8.08-3.7401,2.38.4,4.62,1.42,7.04,1.58" fill="#f1bd7b"/><path d="M105.0181,87.1855c-3.46.46-.89,5.65,1.59,3.71,2.18-1.04.59-4.48-1.59-3.71" fill="#f1bd7b"/><path d="M82.9181,91.4055c-2.3,1.53.72,5.22,2.6,3.18,2.45-1.47-.5601-5.37-2.6-3.18" fill="#f1bd7b"/><path d="M61.9781,94.3455c-2.54,1.05-.6601,5.19,1.7599,3.8,2.4-1.18.62-5.16-1.7599-3.8" fill="#f1bd7b"/><path d="M73.998,103.3455c-2.85.89-.23,5.73,2.1,3.85,2.64-1.21.42-5.56-2.1-3.85" fill="#f1bd7b"/><path d="M107.158,112.1455c1.06,1.72,2.73.46,4.09-.03-.35-1.3-.66-3.7299-2.61-3.1599-1.55-.16-2.35,2.08-1.48,3.1899" fill="#f1bd7b"/><path d="M85.5281,112.6855c-.02.85-.07,2.55-.0901,3.4,1.3901.35,2.8101.31,4.1901-.07,0-.84.01-2.52.01-3.37-1.36-.42-2.7601-.41-4.11.04" fill="#f1bd7b"/><path d="M63.828,119.1255c1.65,1.51,5.03.88,4.22-1.78-1.21-2.9-4.35-.58-4.22,1.78" fill="#f1bd7b"/><path d="M98.1481,122.3855c-.97.86-.88,2.77.3799,3.24,1.7501,1.28,4.19-1.05,3.3-2.87-.36-1.52-2.89-1.69-3.68-.37" fill="#f1bd7b"/><path d="M110.2381,132.8055c.32,1.99,2.87,2.36,3.8799.72,1.33-1.46-.69-2.72-1.46-3.78-.96.82-2.77,1.44-2.42,3.06" fill="#f1bd7b"/><path d="M89.7181,134.0755c-1.09.43-1.05,2.14-.41,2.92,1.02,1.74,4.25.15,3.55-1.66-.41-1.08-2.16-2.73-3.14-1.26" fill="#f1bd7b"/><path d="M67.948,137.4155c-2.4,1.63.48,5.34,2.62,3.46,2.66-1.57-.52-5.63-2.62-3.46" fill="#f1bd7b"/><path d="M61.9781,94.3455c2.3799-1.36,4.16,2.62,1.7599,3.8-2.42,1.39-4.3-2.75-1.7599-3.8" fill="#440d00"/><path d="M107.158,112.1455c-.87-1.11-.07-3.3499,1.48-3.1899,1.95-.57,2.26,1.86,2.61,3.1599-1.36.49-3.03,1.75-4.09.03" fill="#440d00"/><path d="M63.828,119.1255c-.13-2.36,3.01-4.68,4.22-1.78.81,2.66-2.57,3.29-4.22,1.78" fill="#440d00"/><path d="M154.738,125.0855c1.53-.96,2.67.85,3.56,1.74-.98.72-2.03,2.73-3.56,1.85-1.48-.7299-1.45-2.87,0-3.59" fill="#440d00"/><path d="M186.668,125.9555c2.21-1.77,4.69,1.83,2.6,3.4099-2.24,1.97-5.21-1.8-2.6-3.4099" fill="#440d00"/><path d="M89.7181,134.0755c.98-1.47,2.73.18,3.14,1.26.7,1.81-2.53,3.4001-3.55,1.66-.64-.78-.68-2.49.41-2.92h0Z" fill="#440d00"/><path d="M105.518,49.7955c-1.2-1.6501,1.29-2.81,2.06-3.88.76,1.07,3.2,2.34,1.87,3.95-.6,1.67-3.45,1.67-3.93-.0699h0Z" fill="#501000"/><path d="M152.678,46.8455c.74-.09,2.23-.27,2.97-.36.41,1.44,1.26,4.4799-1.2,4.47-2.51.7299-3.65-2.7-1.77-4.11h0Z" fill="#571d07"/><path d="M140.8681,58.2255c2.47-2.58,5.93,2.16,3.12,3.91-2.38,1.5-5.19-1.89-3.12-3.91h0Z" fill="#430f04"/><path d="M118.5181,66.3155c2.34.85,4.7,2.29,5.56,4.77,1.97,4.82-2.69,10.21.52,14.7,1.03,1.92,2.55,3.73,2.7,5.99,0,2.44-.83,4.78-1.13,7.19.69,2.81,2.93,5.01,3.46,7.89.33,2.25-.13,4.52-.35,6.7599l-.05.4001c-1.58-1.14-3.33-2.47-3.43-4.61-.11-3.65-3.15-6.16-3.98-9.55.1-2.39.97-4.66,1.27-7.03-.68-3.84-4.41-6.81-3.82-10.93.17-3.8199,2.64-8.2-.29-11.52-1.11-1.15-.83-2.69-.46-4.06h0Z" fill="#3e0b01"/><path d="M128.758,70.9855c.51-1.84,2.61-1.2,4-1.47.15,1.38.91,4.09-1.21,4.32-1.66.72-3.61-1.31-2.79-2.85h0Z" fill="#5b1c07"/><path d="M159.6481,69.8855c3.5-1.27,5.77,2.82,8.39,4.46,3.16,2.76,7.5,1.39,11.23,1.82,2.29,1.31,4.12,3.37,6.63,4.3,2.46.65,5.04.14,7.54.54,2.3,1.21,3.97,3.41,6.41,4.39,2.53.62,5.2.12,7.76.6,2.75,1.7,4.79,4.54,7.99,5.49,2.97.63,6.05-.14,9.02.48,1.88.38,3.27,2.57,2.4,4.39-1.51,2.9799-4.77,4.68-6.05,7.82-1.08,2.43-.02,5.07-.06,7.6-.7,3-3.89,4.55-4.88,7.41-.49,2.5.22,5.08-.31,7.58-1.34,2.81-4.8,4.59-4.82,8-.37,2.34.61,5.21-1.19,7.12-1.72,2.17-4.05,4.14-4.51,7.03-.42,3.0099.4,6.12-.39,9.09-.46,2.14-3.38,2.66-4.92,1.36-2.03-1.5999-3.51-3.9099-5.96-4.94-2.93-1.46-6.26-.71-9.38-1.04-2.26-1.13-3.84-3.3-6.14-4.37-2.68-.96-5.58-.27-8.34-.68-2.63-1.33-4.69-3.72-7.58-4.54-2.48-.54-5.04-.17-7.54-.54-2.77-1.78-4.65-5.25-8.26-5.5-3.28-.7-7.08.93-10.04-.88-2.53-3.57,2.12-6.44,3.95-9.06,3.2-3.25,1.91-7.97,2.04-12.01,1.46-2.02,3.8-3.52,4.4-6.06.31-2.29-.1-4.61.03-6.9.81-2.19,2.94-3.5,4.22-5.39,2.73-3.22-.79-8.4,2.69-11.19,2.43-2.1801,4.31-5.13,3.97-8.54.26-2.57-1.03-6.23,1.7-7.84M168.088,86.5755c-3.08.94-.27,5.75,2.1,3.63,1.89-1.4.07-4.55-2.1-3.63M186.658,94.7755c-1.28,2.91,2.62,3.36,4.38,2.21.34-2.64-2.75-5.0901-4.38-2.21M175.118,99.4855c-1.11.34-2.64,2.16-1.24,3.11.83,1.26,2.52,1.04,3.41-.01,1.48-1.35-.55-3.75-2.17-3.1M206.998,100.2655c-2.81.95-.75,5.15,1.63,3.76,2.78-.71.66-4.86-1.63-3.76M160.838,106.2455c-1.73,1.6.32,4.31,2.38,3.18,2.73-1.21-.4-5.52-2.38-3.18M181.188,112.4555c-3.63.0099-1.82,5.73,1.07,4.02,2.38-.81,1.15-4.35-1.07-4.02M199.908,119.1755c-2.86.78-.47,5.36,1.83,3.9,2.4399-1.01.5-4.85-1.83-3.9M154.738,125.0855c-1.45.72-1.48,2.86,0,3.59,1.53.88,2.58-1.13,3.56-1.85-.89-.89-2.03-2.7-3.56-1.74M186.668,125.9555c-2.61,1.61.36,5.3799,2.6,3.4099,2.09-1.58-.39-5.18-2.6-3.4099M171.918,134.0155c.77.77,1.6,1.48,2.49,2.12,1.88.12,3.57-2.47,1.72-3.69-1.56-1.58-3.14.61-4.21,1.57M194.058,138.4055c-2.01-.11-3.03,2.93-1.14,3.87,1.34,1.04,3.02-.28,3.54-1.57-.06-1.24-1.1-2.44-2.4-2.3h0Z" fill="#f0bd7b"/><path d="M168.088,86.5755c2.17-.92,3.99,2.23,2.1,3.63-2.37,2.12-5.18-2.69-2.1-3.63h0Z" fill="#451300"/><path d="M105.0181,87.1855c2.18-.77,3.77,2.67,1.59,3.71-2.48,1.94-5.05-3.25-1.59-3.71" fill="#3e0d02"/><path d="M175.118,99.4855c1.62-.65,3.65,1.75,2.17,3.1-.89,1.05-2.58,1.27-3.41.01-1.4-.95.13-2.77,1.24-3.11" fill="#3e0d02"/><path d="M206.998,100.2655c2.29-1.1,4.41,3.05,1.63,3.76-2.38,1.39-4.44-2.81-1.63-3.76" fill="#3e0d02"/><path d="M199.908,119.1755c2.33-.95,4.27,2.89,1.83,3.9-2.3,1.46-4.69-3.12-1.83-3.9" fill="#3e0d02"/><path d="M110.2381,132.8055c-.35-1.62,1.46-2.24,2.42-3.06.77,1.06,2.79,2.32,1.46,3.78-1.01,1.64-3.56,1.27-3.8799-.72" fill="#3e0d02"/><path d="M82.9181,91.4055c2.0399-2.19,5.0499,1.71,2.6,3.18-1.88,2.04-4.9-1.65-2.6-3.18h0Z" fill="#340600"/><path d="M128.608,92.6555c1.3-.41,2.82-.88,3.96.2,1.19,1.13.13,2.62-.1,3.91-1.23-.3701-2.45-.75-3.68-1.11-.04-.75-.13-2.25-.18-3h0Z" fill="#c6854d"/><path d="M186.658,94.7755c1.63-2.88,4.72-.43,4.38,2.21-1.76,1.15-5.66.7-4.38-2.21h0Z" fill="#693513"/><path d="M73.998,103.3455c2.52-1.71,4.74,2.64,2.1,3.85-2.3301,1.88-4.95-2.96-2.1-3.85h0Z" fill="#401000"/><path d="M160.838,106.2455c1.98-2.34,5.11,1.97,2.38,3.18-2.06,1.13-4.11-1.58-2.38-3.18" fill="#421205"/><path d="M85.5281,112.6855c1.3499-.45,2.75-.46,4.11-.04,0,.85-.01,2.53-.01,3.37-1.38.38-2.8.42-4.1901.07.0201-.85.0701-2.55.0901-3.4h0Z" fill="#754017"/><path d="M181.188,112.4555c2.22-.33,3.45,3.21,1.07,4.02-2.89,1.71-4.7-4.01-1.07-4.02h0Z" fill="#5d2b0a"/><path d="M98.1481,122.3855c.7899-1.32,3.32-1.15,3.68.37.89,1.82-1.55,4.15-3.3,2.87-1.2599-.47-1.35-2.38-.3799-3.24h0Z" fill="#3a0b00"/><path d="M171.918,134.0155c1.07-.96,2.65-3.15,4.21-1.57,1.85,1.22.16,3.81-1.72,3.69-.89-.64-1.72-1.35-2.49-2.12h0Z" fill="#340800"/><path d="M67.948,137.4155c2.1-2.17,5.28,1.89,2.62,3.46-2.14,1.88-5.02-1.83-2.62-3.46h0Z" fill="#532003"/><path d="M194.058,138.4055c1.3-.14,2.34,1.06,2.4,2.3-.52,1.29-2.2,2.61-3.54,1.57-1.89-.94-.87-3.98,1.14-3.87h0Z" fill="#360900"/></svg>