<?xml version="1.0" encoding="UTF-8"?><svg id="Layer_1" xmlns="http://www.w3.org/2000/svg" width="3.7654in" height="2.6332in" viewBox="0 0 271.1111 189.5935"><path d="M64.775,95.1666c1.66.83,3.31,1.75,5.04,2.48.55.23,1.64.7,2.18.93-.13,1.26-.23,2.53-.3,3.81,1.83,13.06,7.8,25.4301,16.01,35.6901,6.7,8.34,16.13,14.9,26.84,16.62,11.64,1.87,23.88,2.02,35.22-1.56,14.08-5.05,24.11-17.46,30.29-30.65,3.41-7.63,6.47-15.86,5.9-24.36,2.52-.63,4.8199-1.86,7.11-3.04-2.21,17.01-8.1801,33.89-19.28,47.18-5.17,6.65-11.89,12.18-19.64,15.55-7.3699,3.14-15.49,3.72-23.4,3.98-9.77,0-19.91-.66-28.85-4.97-10.67-5.04-18.46-14.5-24.59-24.31-6.77-11.39-10.71-24.28-12.53-37.35h0Z" fill="#f4e9df" opacity=".6"/><path d="M155.865,85.2466c.9299-1.07,2.5699-1.02,2.47.86l.1.39c8.44,1.54,17.16,3.31,24.47,8.06-.24.35-.7,1.04-.93,1.39,1.54.12,3.08.25,4.64.4-.1699.45-.4899,1.34-.6599,1.78-1.26,2.37-2.65,4.71-4.45,6.71.11-1.58.15-3.16.21-4.72-7.48,1.63-14.9401,3.32-22.54,4.3-4.45.41-8.9.78-13.36.99-.31,1.4799-.18,3-.47,4.5-.7299.08-2.2.25-2.94.34-.0399-1.63-.0699-3.24-.09-4.85-12.07-.06-24.15.36-36.2-.31-10.24-.75-20.34-2.71-30.27-5.27,0,1.52.01,3.05.01,4.58-1.36-.75-2.74-1.41-4.16-2.01.07-1.28.17-2.55.3-3.81-.54-.23-1.63-.7-2.18-.93,1.42-.91,2.87-1.77,4.37-2.56,11.62-7.24,25.62-8.7,38.96-9.95,2,.7,4.0599,1.21,6.18,1.42l-.52,2.24c-9.56.57-19.18,1.39-28.41,4.08-3.66.81-7.15,2.19-10.53,3.79,4.49.98,8.99,1.93,13.55,2.52,5.71,1.03,11.48,1.59,17.28,1.88,4.42-4.67,10-8.47,16.4699-9.48-.38,2.98-3.32,3.64-5.61,4.66-.0701.37-.2,1.13-.27,1.51-1.33.71-2.69,1.37-4.04,2.02l.07.39c-.35.87-.67,1.75-.98,2.64,7.7501.5,15.55.21,23.3101.21,2.97.59,3.68-4.58,6.4-3.41-.08.43-.22,1.29-.29,1.72,11.08-.82,22.18-2.03,32.99-4.68-7.56-3.71-15.87-5.42-24.12-6.77-.46.42-1.37,1.27-1.83,1.69-1.81-2.67,1.31-4.76,3.0701-6.32h0Z" fill="#421205"/><path d="M197.765,29.2766c-4.91,4.02-8.83,9.11-13.13,13.75-14.42,15.92-28.39,32.25-43.05,47.95-5.09,6.24-14.09,2.58-20.3,6.78.07-.38.2-1.14.27-1.51,2.29-1.02,5.23-1.68,5.61-4.66,3.66-.79,8.18.33,10.8199-2.97-6.39-.11-12.7899-.05-19.1799.18l.52-2.24c-2.1201-.21-4.18-.72-6.18-1.42,9.39-1.09,18.86-.61,28.28-.43,3.07-2.68,5.6-6,8.32-9.04-17.65-1.13-35.4-.76-52.99,1.25-9.36,1.29-18.87,2.81-27.51,6.8199-2.16.91-3.82,2.61-5.19,4.47,2.13,3.76,6.44,5.16,10.13,6.88-1.5.79-2.95,1.65-4.37,2.56-1.73-.73-3.38-1.65-5.04-2.48,1.82,13.07,5.7599,25.96,12.53,37.35,6.13,9.81,13.92,19.27,24.59,24.31,8.94,4.31,19.08,4.97,28.85,4.97,7.91-.2599,16.03-.84,23.4-3.98,7.7501-3.37,14.47-8.9,19.64-15.55,11.1-13.29,17.07-30.17,19.28-47.18-2.29,1.18-4.59,2.41-7.11,3.04.17-.44.49-1.33.6599-1.78-1.5599-.15-3.0999-.28-4.64-.4.23-.35.69-1.04.93-1.39l.78.48c3.15-1.38,6.59-2.56,9.02-5.11,1.56-2.14-.74-4.35-2.51-5.34-7.03-3.97-15.14-5.19-22.9-6.99-2.88,2.95-6,5.65-8.96,8.5099.1-1.8799-1.54-1.93-2.47-.86-1.7601,1.56-4.8801,3.65-3.0701,6.32-2.42,2.5-5.32,4.8-6.75,8.04-2.72-1.17-3.43,4.0001-6.4,3.41-7.76,0-15.56.29-23.3101-.21.3101-.89.63-1.77.98-2.64.36.42,1.07,1.26,1.43,1.6801,7.6-.23,15.22.2499,22.82-.32.39-1.97.5-4.1,1.8-5.73,4.13-5.47,9.44-9.8799,14.31-14.66,14.62-13.75,29.46-27.24,44.32-40.73,2.9-2.47,5.72-6.06,4.38-10.12-1.5301-3.25-6.12-2.9301-8.61-1.01Z" fill="none"/><path d="M193.145,27.6065c-13,13.66-25.4,27.88-37.88,42.01-1.02.93-1.92,2.58-3.57,2.13-22.63-1.57-45.56-1.2-67.89,3.09-6.05,1.29-12.19,2.74-17.66,5.73-3.0699,1.71-6.2899,4.61-5.9299,8.49.61,12.64,3.5099,25.24,8.85,36.74,5.56,11.64,13.08,22.66,23.53,30.43,8.3,6.26,18.8101,8.63,29,9.38,11.09.7401,22.5099.12,33.08-3.55,10.35-3.53,18.3-11.59,24.87-20.03,11.2-15.28,17.23-34.07,18.02-52.92.37-4-3.04-6.91-6.15-8.75-6.24-3.52-13.42-4.8-20.36-6.15,11.91-11,24.21-21.59,35.77-32.96,3.88-3.54,5.8099-10.17,2.14-14.52-4.1201-4.6801-11.94-3.54-15.82.8799ZM201.995,40.4066c-14.86,13.49-29.7,26.98-44.32,40.73-4.87,4.78-10.18,9.19-14.31,14.66-1.3,1.6301-1.41,3.7601-1.8,5.73-7.6.5699-15.22.09-22.82.32-.36-.42-1.0699-1.26-1.43-1.6801-.35.8701-.67,1.75-.98,2.64,7.7501.5,15.55.21,23.3101.21,2.97.59,3.68-4.58,6.4-3.41,1.43-3.24,4.33-5.54,6.75-8.04-1.81-2.67,1.31-4.76,3.0701-6.32.9299-1.07,2.5699-1.02,2.47.86,2.96-2.86,6.08-5.56,8.96-8.5099,7.76,1.8,15.87,3.02,22.9,6.99,1.77.99,4.07,3.2,2.51,5.34-2.43,2.55-5.87,3.73-9.02,5.11l-.78-.48c-.24.35-.7,1.04-.93,1.39,1.54.12,3.08.25,4.64.4-.1699.45-.4899,1.34-.6599,1.78,2.52-.63,4.8199-1.86,7.11-3.04-2.21,17.01-8.1801,33.89-19.28,47.18-5.17,6.65-11.89,12.18-19.64,15.55-7.3699,3.14-15.49,3.72-23.4,3.98-9.77,0-19.91-.66-28.85-4.97-10.67-5.04-18.46-14.5-24.59-24.31-6.77-11.39-10.71-24.28-12.53-37.35,1.66.83,3.3099,1.7501,5.04,2.48,1.42-.91,2.87-1.77,4.37-2.56-3.69-1.72-8-3.12-10.13-6.88,1.37-1.86,3.03-3.56,5.19-4.47,8.64-4.0099,18.15-5.53,27.51-6.8199,17.59-2.01,35.34-2.38,52.99-1.25-2.72,3.04-5.25,6.36-8.32,9.04-9.42-.18-18.89-.66-28.28.43,2,.7,4.0599,1.21,6.18,1.42l-.52,2.24c6.39-.23,12.79-.29,19.1799-.18-2.64,3.3-7.1599,2.1801-10.8199,2.97-.38,2.98-3.32,3.64-5.61,4.66-.0701.3701-.2,1.13-.27,1.51,6.21-4.2,15.21-.54,20.3-6.78,14.66-15.7,28.63-32.03,43.05-47.95,4.3-4.64,8.22-9.73,13.13-13.75,2.49-1.92,7.0799-2.24,8.61,1.01,1.34,4.06-1.48,7.65-4.38,10.12Z" fill="#330d09"/><path d="M197.765,29.2766c2.49-1.92,7.0799-2.24,8.61,1.01,1.34,4.06-1.48,7.65-4.38,10.12-14.86,13.49-29.7,26.98-44.32,40.73-4.87,4.78-10.18,9.19-14.31,14.66-1.3,1.63-1.41,3.76-1.8,5.73-7.6.57-15.22.09-22.82.32-.36-.42-1.07-1.26-1.43-1.68l-.07-.39c1.35-.65,2.71-1.31,4.04-2.02,6.21-4.2,15.21-.54,20.3-6.78,14.66-15.7,28.63-32.03,43.05-47.95,4.3-4.64,8.22-9.73,13.13-13.75h0Z" fill="#c7c7c8"/><path d="M96.755,76.9166c17.59-2.01,35.34-2.38,52.99-1.25-2.72,3.04-5.25,6.36-8.32,9.04-9.42-.18-18.89-.66-28.28.43-13.34,1.25-27.34,2.71-38.96,9.95-3.69-1.72-8-3.12-10.13-6.88,1.37-1.86,3.03-3.56,5.19-4.47,8.64-4.01,18.15-5.53,27.51-6.82h0Z" fill="#f2eee4" opacity=".6"/><path d="M158.335,86.1066c2.96-2.86,6.08-5.56,8.96-8.51,7.76,1.8,15.87,3.02,22.9,6.99,1.77.99,4.07,3.2,2.51,5.34-2.43,2.55-5.87,3.73-9.02,5.11l-.78-.48c-7.31-4.75-16.03-6.52-24.47-8.06l-.1-.39h0Z" fill="#f3efe4" opacity=".6"/><path d="M90.395,92.8766c9.23-2.69,18.85-3.51,28.41-4.08,6.39-.23,12.79-.29,19.1799-.18-2.64,3.3-7.1599,2.18-10.8199,2.97-6.47,1.01-12.05,4.81-16.4699,9.48-5.8-.29-11.57-.85-17.28-1.88,5.11-.57,10.22.28,15.34.08,2.4,0,3.86-2.17,5.59-3.51,2.6299-2.51,6.0499-3.86,9.29-5.39-8.46.48-17.01.49-25.32,2.25-2.62.46-5.28.3-7.92.26h0Z" fill="#f2b168"/><path d="M98.315,92.6166c8.31-1.76,16.86-1.77,25.32-2.25-3.2401,1.53-6.66,2.88-9.29,5.39-1.73,1.34-3.19,3.51-5.59,3.51-5.12.2-10.23-.65-15.34-.08-4.56-.59-9.06-1.54-13.55-2.52,3.38-1.6,6.87-2.98,10.53-3.79,2.64.04,5.3.2,7.92-.26h0Z" fill="#f8ac43"/><path d="M152.795,91.5666c.46-.42,1.37-1.27,1.83-1.69,8.25,1.35,16.56,3.06,24.12,6.77-10.81,2.65-21.91,3.86-32.99,4.68.07-.43.21-1.29.29-1.72,1.43-3.24,4.33-5.54,6.75-8.04h0Z" fill="#f6ac44"/><path d="M181.505,104.8366c1.8-2,3.19-4.34,4.45-6.71.57,8.5-2.49,16.73-5.9,24.36-6.18,13.19-16.21,25.6-30.29,30.65-11.34,3.58-23.58,3.43-35.22,1.56-10.71-1.72-20.14-8.28-26.84-16.62-8.21-10.26-14.18-22.63-16.01-35.6901,1.42.6,2.8,1.26,4.16,2.01,7.11,4.61,15.68,5.92,23.8499,7.44-.3199.34-.96,1.01-1.28,1.34.14.91.2701,1.81.41,2.73-7.22-1.21-14.45-2.68-21.27-5.39,2.49,6.2,4.92,12.48,8.45,18.19,5.0201,8.27,12.22,15.49,21.16,19.42,8.94,3.84,18.9,4.08,28.47,3.61,9.37-.59,18.89-3.72,25.67-10.45,9.55-7.83,15.02-19.24,18.85-30.72-4.3,1.64-8.67,3.15-13.2,3.99-2.89-.67-5.67-1.68-8.48-2.59,7.85-1.61,16.15-2.72,23.02-7.13h0Z" fill="#3a0d04"/><path d="M75.8449,99.8166c9.93,2.56,20.03,4.52,30.27,5.27-.46,1.55-.93,3.09-1.32,4.67,4.21,2.31,9.17,2.26,13.84,2.36,5.42-.08,10.85.12,16.28.02l-.63,1.6c-11.55.29-23.14-.2-34.58-1.9-8.17-1.52-16.74-2.83-23.8499-7.44,0-1.53-.01-3.06-.01-4.58h0Z" fill="#f3a43f"/><path d="M159.175,104.4166c7.6-.98,15.06-2.67,22.54-4.3-.0601,1.56-.1,3.14-.21,4.72-6.87,4.41-15.17,5.52-23.02,7.13l-.32-.08c-3.7-1.2-7.61-.97-11.43-.84.16-1.15.34-2.29.53-3.42,3.9899-.95,8.3-1.07,11.91-3.21h0Z" fill="#f4a942"/><path d="M145.815,105.4066c4.46-.21,8.91-.58,13.36-.99-3.61,2.14-7.92,2.26-11.91,3.21-.19,1.13-.37,2.27-.53,3.42,3.82-.13,7.73-.36,11.43.84-7.9,1.21-15.9,1.67-23.88,1.85l.63-1.6c1.85-.43,3.69-.86,5.55-1.28-.42-1.16-.83-2.32-1.23-3.46-9.59-.6-19.21-.5-28.81-.42.33-.29.9901-.8701,1.32-1.17,10.03.13,20.06.81,30.08-.19-.11,1.56-.21,3.14-.31,4.72l.89-.09c.7401-.09,2.2101-.26,2.94-.34.29-1.5.16-3.0201.47-4.5h0Z" fill="#f4b061"/><path d="M106.115,105.0866c12.05.67,24.13.25,36.2.31.02,1.61.05,3.22.09,4.85l-.89.09c.1-1.58.2-3.16.31-4.72-10.02,1-20.05.32-30.08.19-.33.3-.99.88-1.32,1.17-1.45,1.66-3.58,2.24-5.63,2.78.39-1.58.86-3.12,1.32-4.67h0Z" fill="#92480f"/><path d="M104.795,109.7566c2.05-.54,4.18-1.12,5.63-2.78,9.6-.08,19.22-.1801,28.81.42.4,1.14.81,2.3,1.23,3.46-1.86.42-3.7.85-5.55,1.28-5.43.1-10.86-.1-16.28-.02-4.67-.1-9.63-.05-13.84-2.36h0Z" fill="#e89635"/><path d="M77.565,110.5166c6.82,2.71,14.05,4.18,21.27,5.39.41.05,1.25.15,1.66.2-1.59,4.41-2.3,9.37-.74,13.9,1.4799,4.41,5.43,7.86,9.99,8.77,3.93.76,7.9-.1,11.77-.81.57.13,1.7.39,2.27.52-3.62,2.77-8.35,2.2-12.58,3.02-.02.53-.0699,1.58-.09,2.1,2.64.24,5.28.62,7.88,1.19-.68.12-2.03.36-2.71.47-.05.79-.11,1.58-.16,2.38-2.9799.21-5.97.42-8.95.48-8.9401-3.93-16.14-11.15-21.16-19.42-3.53-5.71-5.96-11.99-8.45-18.19h0Z" fill="#ed902c"/><path d="M166.965,114.5566c4.53-.84,8.9-2.35,13.2-3.99-3.83,11.48-9.3,22.89-18.85,30.72-.74-.07-2.24-.21-2.98-.28,1.8099-1.29,3.53-2.71,5.26-4.11-.72-.84-1.4301-1.66-2.14-2.47,1.97-2.84,3.49-5.96,5.06-9.03,5.08-.62,8.29-6.03,9.94-10.46-4-.74-7.7201,1.84-11.65,2.2-7.24.81-14.43,2.94-21.77,2.15l.35-1.74c7.9-.58,15.81-1.36,23.58-2.99h0Z" fill="#e99535"/><path d="M99.7049,111.8366c11.44,1.7,23.03,2.19,34.58,1.9,7.98-.18,15.98-.64,23.88-1.85l.32.08c2.81.91,5.59,1.92,8.48,2.59-7.77,1.63-15.6801,2.41-23.58,2.99-1.35.06-2.69.12-4.0101.19-9.2399.57-18.52.5-27.72-.51-2.05-.12-4.34-.69-6.15.65-.1499-.09-.45-.28-.61-.37.44-.32,1.3-.95,1.74-1.27-2.05.02-4.1-.03-6.14-.13-.41-.05-1.25-.15-1.66-.2-.14-.92-.27-1.82-.41-2.73.32-.33.96-1,1.28-1.34h0Z" fill="#4c1100"/><path d="M164.805,117.1366c3.9299-.36,7.65-2.94,11.65-2.2-1.65,4.43-4.86,9.84-9.94,10.46-.06-1.18-.4-2.24-1.0101-3.19-2.8199-.11-3.6899,2.92-4.95,4.85-2.28,4.71-6.32,8.34-8.19,13.28,3.9-.29,6.83-2.96,9.09-5.91.71.81,1.42,1.63,2.14,2.47-1.73,1.4-3.4501,2.82-5.26,4.11-5.28,1.21-10.28,3.49-15.66,4.3-7.84,1.24-15.93,1.27-23.68-.51-2.6-.57-5.24-.95-7.88-1.19.02-.52.07-1.57.09-2.1,4.23-.82,8.96-.25,12.58-3.02-.5699-.13-1.7-.39-2.27-.52,9.21-3.26,17.26-9.8,21.52-18.68,7.34.79,14.53-1.34,21.77-2.15h0Z" fill="#ea8b28"/><path d="M100.495,116.1066c2.04.1,4.09.15,6.14.13-.44.32-1.3.95-1.74,1.27-2.51,1.96-2.31,5.7-2.4,8.6.2,6.03,6.59,9.79,12.17,9.08,10.44-1.21,19.89-8.18,24.71-17.45,1.3201-.07,2.66-.13,4.0101-.19l-.35,1.74c-4.2599,8.88-12.31,15.42-21.52,18.68-3.87.71-7.84,1.57-11.77.81-4.56-.91-8.51-4.36-9.99-8.77-1.56-4.53-.85-9.49.74-13.9h0Z" fill="#a24e0b"/><path d="M102.495,126.1066c.09-2.9-.11-6.64,2.4-8.6.16.09.46.28.61.37,1.81-1.34,4.1-.77,6.15-.65,9.2,1.01,18.48,1.08,27.72.51-4.8199,9.27-14.27,16.24-24.71,17.45-5.58.71-11.97-3.05-12.17-9.08h0Z" fill="#d77f27"/><path d="M160.555,127.0566c1.26-1.93,2.13-4.96,4.95-4.85.61.95.9501,2.01,1.0101,3.19-1.57,3.07-3.09,6.19-5.06,9.03-2.26,2.95-5.19,5.62-9.09,5.91,1.87-4.94,5.91-8.57,8.19-13.28h0Z" fill="#fbaf3e"/><path d="M142.675,145.3066c5.38-.81,10.38-3.09,15.66-4.3.74.07,2.24.21,2.98.28-6.78,6.73-16.3,9.86-25.67,10.45-9.57.47-19.53.23-28.47-3.61,2.9799-.06,5.97-.27,8.95-.48.05-.8.11-1.59.16-2.38.68-.11,2.03-.35,2.71-.47,7.75,1.78,15.84,1.75,23.68.51h0Z" fill="#f9ab3f"/></svg>