<?xml version="1.0" encoding="UTF-8"?><svg id="Layer_1" xmlns="http://www.w3.org/2000/svg" width="3.7654in" height="2.6332in" viewBox="0 0 271.1111 189.5935"><path d="M98.1604,35.2885c6.92-4.52,16.06-3.77,23.19-.15,5.51,2.81,9.84,7.34,13.9,11.9,4.3-4.94,8.65-10.22,14.84-12.8799,7.34-3.52,16.78-3.28,23.24,2.0099,5.16,4.0901,7.71,10.7001,7.69,17.1801,12.29,3.48,25.35,7.19,34.72,16.38,4.43,4.26,6.46,10.6899,5.26,16.7401-1.67,16.24-10.3001,31.44-22.92,41.71-3.26,2.75-6.91,4.98-10.44,7.35-.85,6.9199-6.53,12.02-12.49,14.9-9.98,4.7499-21.08,6.58-32.02,7.21-11.1.41-22.33.1-33.16-2.51-7.5299-1.72-15.14-4.34-21.0999-9.41-3.04-2.54-4.81-6.2599-5.1501-10.18-15.7899-8.93-28.5399-23.99-32.3699-41.97-1.03-5.7499-2.81-11.9799-.3-17.5999,2.02-4.27,5.35-7.83,9.29-10.41,8.54-5.95,18.59-9.1401,28.6-11.6201-.01-7.1699,2.9399-14.7399,9.22-18.65" fill="#38100a"/><path d="M148.9004,39.0584c-8.35,5.2101-13.3201,14.8-14.02,24.48,6.1201.08,12.47,1.06,17.7401,4.35,1.07.4299,2.04,1.6199,3.3,1.38,2.69-2.37,4.97-5.25,8.09-7.13,3.92-2.86,8.66-4.0901,13.17-5.66-.45-5.4-.73-11.37-4.71-15.52-5.89-6.7-16.43-6.21-23.57-1.9" fill="#38100a"/><path d="M95.8804,43.1385c-2.64,3.88-3.02,8.7-2.91,13.25,4.68,1.38,9.42,2.9199,13.46,5.76,3.57,2.38,6.39,5.6499,9.3099,8.7499,4.33-3.15,9.27-5.3,14.4501-6.6199.41-3.32,1.06-6.63,2.09-9.8201.1899-1.08.9399-2.35.18-3.3799-4.46-7.68-12.33-13.7-21.31-14.7-5.78-.73-12.19,1.64-15.27,6.76" fill="#38100a"/><path d="M70.6004,79.0585c1.63,5.6299,4.37,12.39,10.61,14.07,8.75,2.74,17.71,4.87,26.81,6.01-1.43-4.09-2.88-8.37-2.22-12.75.47-5.1001,3.84-9.18,6.84-13.08-6.23-7.51-15.51-13.35-25.51-13.28-9.55-.04-18.95,9.17-16.53,19.03" fill="#38100a"/><path d="M158.6604,72.3085c2.22,4.03,4.6,8.33,4.26,13.11.09,5.02-2.94,9.2-4.71,13.6899,9.12,0,18.08-2.19,26.89-4.3999,3.19-.95,6.9001-1.5301,9.0999-4.3101,5.0001-5.94,7.7401-14.73,4.0701-22.03-3.18-6.5801-11.22-9.19-18.09-8.25-8.41.96-16.14,5.75-21.52,12.19" fill="#38100a"/><path d="M201.1204,64.5684c1.11,2.58,1.8801,5.29,2.89,7.91,1.9901,2.41,4.85,4.5,5.17,7.87.69,5.67-4.09,10.02-8.64,12.44-10.91,5.83-23.21,8.36-35.33,10.22-20.18,2.63-40.75,2.77-60.89-.26-11.28-1.94-22.77-4.12-32.99-9.52-3.51-1.94-7.23-4.24-8.97-8.02-1.54-3.23-.64-7.23,1.89-9.6899,2.9-2.7001,3.0099-6.94,4.8-10.3-5.84,3.11-12,7.02-14.42,13.5199-1.61,3.9701-.2599,8.5301,2.6201,11.55,6.5699,7.1401,15.94,10.6901,24.91,13.7601,21.96,6.62,45.2,7.7499,67.98,6.62,16.91-1.24,34.07-3.68,49.63-10.7501,6.03-2.8199,12.12-6.4299,15.69-12.2499,2.07-3.25,2.22-7.59.24-10.92-3.19-5.71-9.13-8.99-14.58-12.1801" fill="#38100a"/><path d="M129.4504,68.7485c-7.06,1.38-13.11,6-17.05,11.9-2.8301,4.27-3.75,10.0601-1.48,14.77.93,1.9201,2.14,4.2301,4.54,4.4701,9.45,1.62,19.1,1.1,28.65,1.0699,2.86.11,5.92-.45,7.95-2.66,3.39-3.51,6.9-7.7799,6.87-12.92.32-5.6599-2.9-11.2199-7.76-14.0499-6.4701-3.8801-14.51-4.27-21.72-2.58" fill="#38100a"/><path d="M65.3504,79.3784c-.53,2.7801,1.02,5.29,2.83,7.2501-.34-2.54-.75-5.08-1.33-7.58-.3801.08-1.12.25-1.5.33" fill="#38100a"/><path d="M201.2404,87.4385c3.27-1.54,4.3101-5.27,3.9-8.6301-2.97,1.6401-2.34,5.9001-3.9,8.6301" fill="#38100a"/><path d="M55.8705,94.9985c4.42,16.83,17.19,30.52,32.55,38.19,20.09,10.26,43.61,12.65,65.72,9.18,21.83-2.95,43.59-14.22,55.09-33.6,2.48-4.25,4.32-8.83,5.91-13.4701-4.22,3.0701-8.54,6.0401-13.3,8.2201-8.76,4.1899-18.24,6.58-27.71,8.53-27.06,4.65-55,4.56-81.9-1.08-12.97-2.94-25.97-7.4-36.36-15.97" fill="#38100a"/><path d="M88.5505,138.1185c5.24,9.16,16.56,11.9,26.18,13.85,15.47,2.7,31.52,2.4901,46.86-.96,7.99-2.16,16.91-5.3401,21.2-12.97-29.51,13.4-64.63,12.98-94.24.08h0Z" fill="#38100a"/><path d="M148.9004,39.0584c7.14-4.3099,17.68-4.7999,23.57,1.9,3.98,4.15,4.26,10.1201,4.71,15.52-4.51,1.5699-9.25,2.8-13.17,5.66-3.12,1.88-5.4,4.76-8.09,7.13-1.26.2399-2.23-.9501-3.3-1.38-5.2701-3.29-11.62-4.27-17.7401-4.35.7-9.68,5.67-19.27,14.02-24.48M150.4004,42.7085c-3.01,1.3-5.76,4.26-5.6,7.7001.2999,2.58,3.54,3.28,5.56,2.25,3.14-1.4901,6.18-4.6201,6.01-8.3-.41-2.91-3.98-2.6901-5.97-1.65h0Z" fill="#4f3349"/><path d="M95.8804,43.1385c3.08-5.12,9.4901-7.49,15.27-6.76,8.98,1,16.85,7.02,21.31,14.7.7599,1.03.0099,2.3-.18,3.3799-1.03,3.1901-1.68,6.5001-2.09,9.8201-5.1801,1.3199-10.1201,3.47-14.4501,6.6199-2.92-3.1-5.7399-6.3699-9.3099-8.7499-4.04-2.8401-8.78-4.38-13.46-5.76-.11-4.55.27-9.37,2.91-13.25M105.5104,39.8084c-3.99,1.17-7.69,4.3201-8.4,8.5801-.51,1.87.45,3.9,2.05,4.9199,6.45,3.5601,15.99-2.4999,14.8-9.97-.84-3.67-5.31-4.58-8.45-3.53h0Z" fill="#7a7532"/><path d="M105.5104,39.8084c3.14-1.0499,7.61-.14,8.45,3.53,1.19,7.47-8.35,13.53-14.8,9.97-1.6-1.02-2.56-3.0499-2.05-4.9199.71-4.26,4.41-7.41,8.4-8.5801M105.5104,43.7884c-1.98,1.2101-4.27,2.9701-4.23,5.5201,3.28,2.4,9.61-1.48,8.54-5.6301-1.15-1.1799-3.08-.5599-4.31.11h0Z" fill="#351004"/><path d="M150.4004,42.7085c1.99-1.04,5.56-1.2599,5.97,1.65.17,3.68-2.87,6.8099-6.01,8.3-2.02,1.03-5.2601.33-5.56-2.25-.16-3.4401,2.59-6.4,5.6-7.7001h0Z" fill="#845b7b"/><path d="M105.5104,43.7884c1.23-.6699,3.16-1.2899,4.31-.11,1.07,4.15-5.2599,8.03-8.54,5.6301-.04-2.55,2.25-4.31,4.23-5.5201h0Z" fill="#574e25"/><path d="M201.1204,64.5684c5.45,3.1901,11.39,6.47,14.58,12.1801,1.98,3.33,1.83,7.67-.24,10.92-3.57,5.82-9.66,9.43-15.69,12.2499-15.56,7.0701-32.72,9.5101-49.63,10.7501-22.78,1.1299-46.02,0-67.98-6.62-8.97-3.07-18.34-6.62-24.91-13.7601-2.88-3.0199-4.23-7.5799-2.6201-11.55,2.42-6.4999,8.58-10.4099,14.42-13.5199-1.79,3.36-1.9,7.5999-4.8,10.3-2.53,2.46-3.4301,6.46-1.89,9.6899,1.74,3.78,5.46,6.08,8.97,8.02,10.22,5.4,21.71,7.58,32.99,9.52,20.14,3.03,40.71,2.89,60.89.26,12.12-1.86,24.42-4.39,35.33-10.22,4.55-2.42,9.33-6.77,8.64-12.44-.32-3.37-3.18-5.46-5.17-7.87-1.0099-2.6201-1.78-5.33-2.89-7.91" fill="#edd0ba"/><path d="M70.6004,79.0585c-2.42-9.86,6.98-19.07,16.53-19.03,10-.07,19.28,5.77,25.51,13.28-3,3.9-6.37,7.9799-6.84,13.08-.66,4.38.79,8.66,2.22,12.75-9.1-1.14-18.06-3.27-26.81-6.01-6.24-1.6801-8.98-8.4401-10.61-14.07M81.4704,63.8184c-4.8599,1.47-8.1199,6.63-8.1299,11.5901-.15,3.0499,2.81,5.62,5.81,5.1799,5.96-.69,10.46-7.47,9.01-13.22-.6901-2.9301-3.91-4.45-6.6901-3.55h0Z" fill="#585029"/><path d="M158.6604,72.3085c5.38-6.44,13.11-11.23,21.52-12.19,6.87-.94,14.91,1.6699,18.09,8.25,3.67,7.3.93,16.09-4.0701,22.03-2.1998,2.78-5.9099,3.36-9.0999,4.3101-8.81,2.2099-17.77,4.3999-26.89,4.3999,1.77-4.4899,4.8-8.6699,4.71-13.6899.34-4.78-2.04-9.08-4.26-13.11M174.5505,64.8185c-3.26,1.2899-6.93,3.76-7.31,7.53-.3,2.22,1.96,3.48,3.9,3.44,4.2.05,8.57-2.01,10.89-5.58,1.06-1.56,1.26-4.0599-.39-5.2999-2.13-1.36-4.85-.83-7.09-.09h0Z" fill="#787331"/><path d="M81.4704,63.8184c2.7801-.9,6,.62,6.6901,3.55,1.45,5.75-3.05,12.53-9.01,13.22-3,.4401-5.96-2.13-5.81-5.1799.01-4.9601,3.27-10.1201,8.1299-11.5901M77.1304,75.2984c.0601,1.26,1.16,2.1401,2.35,1.5001,3.47-1.67,5.13-5.85,4.53-9.56-3.84.74-6.42,4.34-6.88,8.0599h0Z" fill="#361107"/><path d="M174.5505,64.8185c2.24-.74,4.96-1.27,7.09.09,1.65,1.24,1.45,3.7399.39,5.2999-2.32,3.57-6.69,5.6301-10.89,5.58-1.94.04-4.2-1.22-3.9-3.44.38-3.77,4.05-6.2401,7.31-7.53h0Z" fill="#b2ac59"/><path d="M77.1304,75.2984c.46-3.7199,3.04-7.3199,6.88-8.0599.6,3.71-1.06,7.89-4.53,9.56-1.19.64-2.29-.2401-2.35-1.5001h0Z" fill="#493b1f"/><path d="M129.4504,68.7485c7.21-1.69,15.2499-1.3,21.72,2.58,4.86,2.83,8.08,8.39,7.76,14.0499.03,5.1401-3.48,9.41-6.87,12.92-2.03,2.2101-5.09,2.77-7.95,2.66-9.55.03-19.2.55-28.65-1.0699-2.4-.24-3.61-2.55-4.54-4.4701-2.27-4.7099-1.3501-10.5,1.48-14.77,3.94-5.9,9.99-10.52,17.05-11.9M126.5005,72.7885c-3.5,1.16-7.69,4.14-6.9901,8.31,1.73,2.97,5.7,3.02,8.63,2.11,3.51-1.08,7.91-3.61,7.73-7.8101-1.3-3.7-6.2599-3.4999-9.3699-2.61M146.2804,75.5684c-7.14,4.6-2.52,19.6901,6.56,17.36,4.71-3.16,4.25-10.2601,1.39-14.58-1.42-2.78-5.12-4.37-7.95-2.78h0Z" fill="#573b53"/><path d="M126.5005,72.7885c3.11-.89,8.0699-1.09,9.3699,2.61.1801,4.2-4.22,6.73-7.73,7.8101-2.93.91-6.9.86-8.63-2.11-.7-4.17,3.4901-7.15,6.9901-8.31h0Z" fill="#885d7f"/><path d="M146.2804,75.5684c2.83-1.59,6.53,0,7.95,2.78,2.86,4.3199,3.32,11.42-1.39,14.58-9.08,2.33-13.7-12.76-6.56-17.36M147.4104,79.6185c-1.29,3.48-.09,7.4,2.89,9.59,2.1899-2.05,1.83-5.29.98-7.8701-.55-1.6-2.32-3.28-3.87-1.72h0Z" fill="#3d1010"/><path d="M65.3504,79.3784c.38-.08,1.1199-.2499,1.5-.33.58,2.5.99,5.04,1.33,7.58-1.81-1.96-3.36-4.47-2.83-7.2501h0Z" fill="#67453a"/><path d="M147.4104,79.6185c1.55-1.5601,3.32.12,3.87,1.72.85,2.58,1.21,5.8201-.98,7.8701-2.98-2.19-4.18-6.11-2.89-9.59h0Z" fill="#4c3923"/><path d="M201.2404,87.4385c1.5601-2.73.9301-6.99,3.9-8.6301.41,3.36-.63,7.09-3.9,8.6301h0Z" fill="#73483f"/><path d="M55.8705,94.9985c10.39,8.57,23.39,13.03,36.36,15.97,26.9,5.64,54.84,5.73,81.9,1.08-2.59,5.8099-4.1899,12.16-8.0699,17.32-3.54,4.7-7.41,9.21-11.92,13-22.11,3.47-45.63,1.08-65.72-9.18-15.36-7.67-28.13-21.36-32.55-38.19h0Z" fill="#e7cbb2"/><path d="M201.8404,103.5185c4.7599-2.18,9.08-5.15,13.3-8.2201-1.59,4.6401-3.43,9.2201-5.91,13.4701-1.79-2.61-4.21-4.66-7.39-5.25h0Z" fill="#cda086"/><path d="M174.1304,112.0485c9.47-1.95,18.95-4.34,27.71-8.53,3.18.59,5.6,2.64,7.39,5.25-11.5,19.38-33.2601,30.65-55.09,33.6,4.51-3.79,8.38-8.3,11.92-13,3.88-5.16,5.48-11.5101,8.0699-17.32h0Z" fill="#c89978"/><path d="M88.5505,138.1185c29.61,12.9,64.73,13.3199,94.24-.08-4.29,7.6299-13.21,10.81-21.2,12.97-15.34,3.45-31.39,3.6599-46.86.96-9.62-1.95-20.94-4.69-26.18-13.85h0Z" fill="#c99a7e"/></svg>