<?xml version="1.0" encoding="UTF-8"?><svg id="Layer_1" xmlns="http://www.w3.org/2000/svg" width="3.7654in" height="2.6332in" viewBox="0 0 271.1111 189.5935"><path d="M214.5375,81.8723c-1.34-6.02-6.32-10.62-11.87-12.89-9.13-3.7999-21.26-.7399-25.76,8.55-3.26-4.58-6.08-9.46-8.2-14.66,2.74,1.63,5.52,3.3801,8.73,3.92,6.65,1.4901,14.5699-2.1799,16.71-8.89,1.05-2.89,1.2001-6.55,4.38-8.05,2.5601-2.08,5.8801-1.28,8.47.27.54-.64,1.06-1.3,1.55-1.99.46-2.4-2.31-3.22-4.08-3.59-3.99-.77-7.97,1.03-10.74,3.84-1.17-1.68-2.48-3.35-4.4-4.17-3.87-2.14-9.27-.29-11.04,3.74-2.17,4.17.54,10.27,5.32,10.97.94-.45,1.57-1.17,1.87-2.16-.67-2.34-4.1-3.17-3.74-5.9.3199-3.6199,5.67-4.52,7.55-1.56,3.35,4.76-.22,12.0801-5.74,13.16-6.1,1.76-12.2401-1.98-15.7401-6.77-1.42-2.54-2.89-5.92-1.33-8.7,3.08-5.79,6.27-11.6201,8.09-17.95.92-2.07-1.1-3.54-2.41-4.73-1.99-1.6201-3.99-3.37-6.43-4.2501-2.78-.5599-3.94,2.6-4.48,4.71-2.43,8.24-5.15,16.6-10.03,23.75-4.47,2.58-9.99,1.49-14.51-.38,3.6699-3.15,7.25-7,7.67-12.08.54-5.82-.58-12.8199-5.49-16.61-1.44,1.36-2.87,2.74-4.27,4.13-3.27-6.72-9.66-11.93-17.02-13.36-3.4,1.53-1.34,6.38-1.89,9.29-8.69-3.48-18.26-2.08-27.1-.0699-.45.29-1.35.8699-1.8,1.15,1.38,6.19,4.53,11.72,7.46,17.27-3.05.7001-6.06,2.3-7.55,5.16-2.99,4.97-1.19,11.57,3.34,14.96-2.62,2.73-4.98,5.97-5.3799,9.85-.94,4.58,1.28,8.86,3.25,12.82.23,1.01.45,2.05.67,3.08.4-.05,1.19-.16,1.59-.21-.22-2.6-.4-5.22-.74-7.8-.89-3.46-1.5-7.27.39-10.53,4.96-10.4901,22.17-10.92,27.88-.9-5.97,2.71-11.14,7.56-12.86,14.06,1.6-.4,3.2-.82,4.81-1.23,1.92-3.63,4.74-6.9301,8.58-8.5701,6.01-2.94,14.22-.7,17.29,5.41,4.85,9.47-2.54,22.2-12.9299,23.4-3.4.4501-6.73-.78-9.59-2.5099-1.34,1.42-2.65,2.86-3.9699,4.29.0699.33.2199.99.2999,1.32,7.26-1.3,14.88,3.26,16.94,10.38.62-.15,1.88-.47,2.51-.63-.23,3.25-.5301,6.54.0099,9.77.34-1.08.6801-2.17,1.03-3.2499,1.39-.49,2.78-.98,4.1899-1.47-.0499.9-.1199,1.8-.1599,2.7,3.6,1.26,7.0299,3.5,8.89,6.94,3.73,6.22,2.79,14.79-2.22,20.02-3.34,3.2001-8.33,3.8301-12.69,2.8201-.76,1.0499-1.53,2.09-2.27,3.15l-.12.17c4.25,1.2499,8.98,1.93,13.1-.1301,7.3-3.05,11.28-11.28,10.47-18.95,3.7701,5.61,10.8901,7.92,17.36,6.41-.6,5.56.31,11.48,3.74,16.04,3.79,5.51,10.95,9.04,17.62,7.2499,5.8701-1.31,10.5-6.16,12.44-11.74,1.98-5.93,1.35-12.51-1.37-18.1,6.27-.12,12.36-3.98,14.58-9.94,3.3599-7.9.23-17.03-5.51-22.94,5.32-3.75,8.23-10.7,6.65-17.09ZM127.6775,100.4023c.03,1.19.06,2.39.08,3.59-1.3-1.17-2.91-3.1-.08-3.59ZM123.4275,62.7723c4.75-2.31,9.37-5.95,10.44-11.42,4.48,1.93,9.3,2.89,14.1899,2.8-1.77,2.06-3.35,4.93-6.43,4.98-6.19.6-12,3.22-18.2,3.64ZM137.5775,69.3124c-1.73-1.46-3.46-2.9-5.14-4.38,3.02-.58,6.08-1.0601,9.15-1.36-1.31,1.9301-2.67,3.83-4.01,5.7401ZM145.7175,81.0623c-.98,1.83-3.15,1.62-4.88,1.95,0-2.06-.02-4.12-.07-6.17,4.3-4.34,8.63-8.65,12.98-12.95.1801,3.45.56,6.89,1.29,10.27-3.62,1.5099-7.01,3.67-9.32,6.9ZM159.0574,72.6924c-.6801-5.2701-2.6899-11.7401,1.15-16.23.51-.77,1.09-1.51,1.64-2.26,1.05,7.2401,4.12,13.95,7.77,20.23-3.32-1.56-7-1.48-10.5601-1.7399ZM178.3475,105.5623c-1.24-1.36-2.5-2.69-3.77-3.99,1.73-2.66,3.09-5.52,3.78-8.6299,1.59,1.6299,3.22,3.23,4.93,4.7599-2.05,2.34-3.83,4.9301-4.94,7.86Z" fill="#36100a"/><path d="M119.7775,14.7923c.0999,2.35.3499,4.72.2199,7.09.15,1.35-.73,3.17-2.31,2.7-3.11-.89-5.96-2.65-9.23-2.88-5.61-.42-11.22.44-16.76,1.19,2.39,5.86,4.69,12.05,9.28,16.6,2.77,2.88,6.66,4.34,9.38,7.29-2.39,1.83-5.26,3.19-6.94,5.78,6.16.29,12.08,2.73,16.46,7.11,4.2-1.6,8.71-4.19,10.08-8.77.77-1.79-1.05-3.07-2.12-4.15-7.6-6.38-16.4-11.09-25.13-15.7.59-1.53,1.81-3.77,3.76-2.37,9.41,4.41,18.63,9.64,26.17,16.89,7.78-3.34,9.8699-13.43,6.28-20.58-1.81,1.31-3.32,4.05-5.89,3.57-1.59-1.22-2.07-3.33-3.05-4.98-2.02-4.21-6.05-6.96-10.2-8.79" fill="#36100a"/><path d="M165.8774,24.9323c-3.9899,12.2-8.8099,24.39-16.62,34.68-2.1599,2.97-4.9999,5.53-6.2999,9.04,1.49-.93,2.88-2.04,3.99-3.41,4.23-5.11,9.11-9.7,12.78-15.26,4.41-6.75,8.03-14.03,10.74-21.62-1.54-1.14-3.07-2.29-4.5901-3.43" fill="#36100a"/><path d="M90.4775,44.9424c-2.28,3.12-.78,7.68,2.07,9.91,1.8499.18,3.55-.73,5.22-1.41,1.01-2.78,3.24-4.7401,5.49-6.53-2.35-1.93-4.72-3.83-7.06-5.75-2.1.92-4.42,1.76-5.72,3.78" fill="#36100a"/><path d="M180.2775,80.8123c-1.72,5.74,1.91,11.79,7.05,14.34,5.53-2.53,11.9-1.42,17.01,1.58,3.05-2.5,6.16-5.62,6.4-9.81.95-7.28-5.36-13.56-12.12-14.94-7.13-1.99-15.8701,1.58-18.34,8.83" fill="#36100a"/><path d="M158.0475,77.5024c-6.38,2.0099-11.66,7.74-12.5,14.47-.75,6.26,3.63,12.93,10.02,13.97,11.41,2.23,22.16-10.51,18.53-21.41-2.18-6.32-10.06-8.73-16.05-7.03" fill="#36100a"/><path d="M137.9075,91.3623c-1.54,2.66-3.74,4.86-5.92,6.9901-.08,3.1299-.25,6.37.92,9.34,1.81,5.26,7.32,9.53,13.03,8.71,1.6-2.38,2.62-5.1,3.9301-7.65-2.61-2.39-5.64-4.61-6.94-8.03-2.02-4.4301-.9901-9.38-.64-14.03-2.34.54-3.22,2.85-4.38,4.67" fill="#36100a"/><path d="M190.0474,98.5723c-5.36,1.8701-8.45,7.8-7.77,13.3.43,9.64,10.64,18.52,20.29,15.28,7.3-2.38,9.68-11.63,6.8-18.19-2.55-7.71-11.39-12.94-19.3201-10.39" fill="#36100a"/><path d="M171.2175,104.8623c-4.44,4.11-10.66,6.52-16.7,5.12-4.18,4.85-5.7,12.01-3.16,17.98,2.03,4.65,7.32,7.48,12.33,6.69,8.67-1.2,15.1801-9.97,14.36-18.58-.22-4.6-3.02-8.77-6.83-11.21" fill="#36100a"/><path d="M131.0274,113.3023q.3701.3,0,0" fill="#36100a"/><path d="M176.5975,132.1523c-2.55,2.06-6.17,4.03-6.16,7.77-.61,7.56,3.84,16.6,12,17.68,5.88,1.2,11.45-3.09,13.47-8.39,1.77-4.77,1.03-10.11-.81-14.74-.42-3-3.55-3.98-5.81-5.2701-2.25-1.08-4.01-3.64-6.79-3.06-3.3199-.11-4.16,3.9-5.9,6.01h0Z" fill="#36100a"/><path d="M119.7775,14.7923c4.15,1.83,8.1799,4.58,10.2,8.79.98,1.65,1.46,3.76,3.05,4.98,2.57.48,4.08-2.26,5.89-3.57,3.5899,7.15,1.5,17.24-6.28,20.58-7.54-7.25-16.76-12.48-26.17-16.89-1.95-1.4-3.17.84-3.76,2.37,8.73,4.61,17.53,9.32,25.13,15.7,1.07,1.08,2.89,2.36,2.12,4.15-1.37,4.58-5.88,7.17-10.08,8.77-4.38-4.38-10.3-6.82-16.46-7.11,1.68-2.59,4.55-3.95,6.94-5.78-2.72-2.95-6.61-4.41-9.38-7.29-4.59-4.55-6.89-10.74-9.28-16.6,5.54-.75,11.15-1.61,16.76-1.19,3.27.23,6.12,1.99,9.23,2.88,1.58.47,2.46-1.35,2.31-2.7.1299-2.37-.12-4.74-.2199-7.09h0Z" fill="#72883a"/><path d="M165.8774,24.9323c1.5201,1.14,3.0501,2.29,4.5901,3.43-2.71,7.59-6.33,14.87-10.74,21.62-3.67,5.56-8.55,10.15-12.78,15.26-1.11,1.37-2.5,2.48-3.99,3.41,1.3-3.51,4.14-6.07,6.2999-9.04,7.8101-10.29,12.6301-22.48,16.62-34.68h0Z" fill="#6b7132"/><path d="M90.4775,44.9424c1.3-2.02,3.62-2.86,5.72-3.78,2.34,1.92,4.71,3.8199,7.06,5.75-2.25,1.79-4.48,3.75-5.49,6.53-1.67.68-3.3701,1.59-5.22,1.41-2.85-2.23-4.35-6.79-2.07-9.91h0Z" fill="#7f4b5c"/><path d="M89.8375,65.1924c4.96-10.4901,22.17-10.92,27.88-.9-5.97,2.71-11.14,7.56-12.86,14.06-.41,1.82-.7,3.67-1,5.51-5.78-.46-11.22-3.2-14.41-8.14-.89-3.4601-1.5-7.27.39-10.53h0Z" fill="#5d4068"/><path d="M118.2475,68.5523c6.01-2.94,14.22-.7,17.29,5.41,4.85,9.47-2.54,22.2-12.9299,23.4-3.4.45-6.73-.78-9.59-2.51-5.05-4.42-6.11-11.75-3.35-17.73,1.92-3.63,4.74-6.93,8.58-8.57M117.9375,72.2824c-2.3,1.43-4.33,4.85-2.1,7.21,3.63,2.49,8.53-1.92,7.15-5.84-.4401-2.25-3.45-2.57-5.05-1.37h0Z" fill="#804a82"/><path d="M117.9375,72.2824c1.6-1.2,4.61-.88,5.05,1.37,1.38,3.92-3.52,8.33-7.15,5.84-2.23-2.36-.2-5.78,2.1-7.21h0Z" fill="#aa73a7"/><path d="M180.2775,80.8123c2.47-7.25,11.21-10.82,18.34-8.83,6.7599,1.38,13.0699,7.66,12.12,14.94-.2401,4.19-3.35,7.31-6.4,9.81-5.11-3-11.48-4.11-17.01-1.58-5.14-2.55-8.77-8.6-7.05-14.34h0Z" fill="#5d4068"/><path d="M89.4475,75.7224c3.19,4.94,8.63,7.68,14.41,8.14.3-1.84.59-3.69,1-5.51,1.6-.4,3.2-.82,4.81-1.23-2.76,5.98-1.7,13.31,3.35,17.73-1.34,1.42-2.65,2.86-3.9699,4.29.0699.33.2199.99.2999,1.32-6,2.16-10.82,7.9-10.62,14.47-.54,7.08,4.31,15.11,11.79,15.84,7.32.94,14.37-4.82,15.66-11.93.42-2.65.3-5.34.11-8,.62-.15,1.88-.47,2.51-.63-.23,3.25-.5301,6.54.0099,9.77.34-1.08.6801-2.17,1.03-3.25,1.39-.49,2.78-.98,4.1899-1.47-.0499.9-.1199,1.8-.1599,2.7-.75-.01-2.26-.03-3.02-.04-.9,3.29-1.79,6.7-3.87,9.49-2.28,3.21-5.86,5.08-9.18,7.02.68,2.86,1.16,5.94,3.05,8.32,1.84,2.25,4.45,3.67,7,4.99-.76,1.05-1.53,2.09-2.27,3.15-1.2-.61-2.39-1.23-3.56-1.86-.13.05-.38.14-.5099.18-1.35.46-2.67.94-4.0001,1.42,1.0001-5.5-2.86-10.1201-4.34-15.15-4.31-.88-8.49-2.31-12.39-4.37-2.03,5.8-5.66,10.91-10.86,14.26.19,1.87.38,3.75.66,5.63-.87-1.24-1.82-2.41-2.73-3.59-.46.65-1.36,1.95-1.81,2.6-.32-.8-.65-1.57-.99-2.33-.23-.12-.68-.35-.91-.47-1.18-.61-2.35-1.22-3.51-1.83,1-.7401,1.9999-1.48,3.05-2.16,3.6-1.5,7.37-3.19,9.69-6.48,4.09-5.05,4.04-12.72.3799-17.97-1.89-2.62-5.11-3.61-8.08-4.39.52-1.23,1.05-2.46,1.59-3.68,2.31.09,4.94,1.43,7.12.3,2.2-3.52,3.73-7.49,6.79-10.42,2.84-2.43,2.1-6.66.54-9.6-4.11-5.62-11.68-7.33-18.26-6.06,1.66-.59,3.39-.95,5.15-1.19.4-.05,1.19-.16,1.59-.21-.22-2.6-.4-5.22-.74-7.8M106.8575,94.9423c-.47,1.63.09,2.24,1.69,1.84.4499-1.65-.11-2.26-1.69-1.84h0Z" fill="#3e1012"/><path d="M158.0475,77.5024c5.99-1.7,13.87.71,16.05,7.03,3.63,10.9-7.12,23.64-18.53,21.41-6.39-1.04-10.77-7.7101-10.02-13.97.84-6.73,6.12-12.46,12.5-14.47M156.9175,80.4223c-2.67,1.28-4.83,4.33-3.06,7.23,3.4,2.69,8.85-.34,8.46-4.61-.1901-2.58-3.28-3.73-5.4-2.62h0Z" fill="#804a82"/><path d="M156.9175,80.4223c2.12-1.11,5.2099.04,5.4,2.62.39,4.27-5.06,7.3-8.46,4.61-1.77-2.9.39-5.95,3.06-7.23h0Z" fill="#aa73a7"/><path d="M70.4675,91.0924c2.97-6.63,10.35-10.58,17.46-10.44.23,1.01.45,2.05.67,3.08-1.76.24-3.49.6-5.15,1.19-3.65,1.69-7.49,3.87-9.36,7.6-2.45,4.98-1.2,11.35,2.77,15.19,2.55,3.03,6.91,2.22,10.4,2.99-.54,1.22-1.07,2.45-1.59,3.68-11.25-2.19-22.2501,10.52-17.65,21.22,2.47,6.09,9.46,8.73,15.66,7.62-1.0501.68-2.05,1.42-3.05,2.16,1.16.61,2.33,1.22,3.51,1.83-4.78.75-9.45-.96-14.18-.83-7.41,3.4-12.0801,13.06-8.53,20.7599,1.98,5.18,7.6,8.82,13.18,8,7.54-.81,13.42-7.83,13.98-15.2-.21-3.44-1.48-6.7-2.55-9.93.45-.65,1.35-1.95,1.81-2.6.91,1.18,1.86,2.35,2.73,3.59.97,2.5,1.93,5.12,3.86,7.09,4.4901,4.86,13.09,5.39,17.89.69,2.4-2.22,3.92-5.18,5.18-8.15,1.33-.48,2.65-.96,4.0001-1.42-.71,7.64-6.23,14.73-13.78,16.59-5.26,1.51-10.9-.17-15.05-3.54-1.89,10.68-13.15,19.53-24.07,16.51-8.04-2.06-13.35-10.65-12.34-18.76.5-7.19,5.06-13.64,11.17-17.2899-3.97-4.6-5.78-10.98-4.13-16.91,1.4-6.39,6.39-11.34,12.19-14.02-6.47-4.45-8.44-13.77-5.03-20.7h0Z" fill="#340d0f"/><path d="M74.0875,92.5223c1.87-3.73,5.71-5.91,9.36-7.6,6.58-1.27,14.15.44,18.26,6.06,1.56,2.94,2.3,7.17-.54,9.6-3.06,2.93-4.59,6.9-6.79,10.42-2.18,1.13-4.81-.21-7.12-.3-3.49-.77-7.85.04-10.4-2.99-3.97-3.84-5.22-10.21-2.77-15.19M83.0675,88.4024c-1.9.96-3.49,3.91-1.38,5.48,2.61,3.1899,8.6801,1.3199,8.77-2.82-.51-3.25-4.89-4.48-7.39-2.66h0Z" fill="#6e345f"/><path d="M137.9075,91.3623c1.16-1.82,2.04-4.13,4.38-4.67-.35,4.65-1.38,9.6.64,14.03,1.3,3.42,4.33,5.64,6.94,8.03-1.3101,2.55-2.33,5.27-3.9301,7.65-5.71.82-11.22-3.45-13.03-8.71-1.17-2.97-1-6.21-.92-9.34,2.18-2.13,4.38-4.33,5.92-6.9901h0Z" fill="#5d3d64"/><path d="M83.0675,88.4024c2.5-1.82,6.88-.59,7.39,2.66-.09,4.14-6.16,6.0099-8.77,2.82-2.11-1.57-.52-4.52,1.38-5.48h0Z" fill="#8a4a7b"/><path d="M190.0474,98.5723c7.9301-2.55,16.77,2.68,19.3201,10.39,2.8799,6.56.5,15.81-6.8,18.19-9.65,3.24-19.86-5.64-20.29-15.28-.68-5.5,2.41-11.43,7.77-13.3M188.9375,102.3623c-3.78,2.25-2.41,10.07,2.58,8.86,4.77-1.6801,2.88-11.03-2.58-8.86h0Z" fill="#6e345f"/><path d="M98.7275,114.9323c-.2-6.57,4.62-12.31,10.62-14.47,7.26-1.3,14.88,3.26,16.94,10.38.19,2.66.31,5.35-.11,8-1.29,7.11-8.34,12.87-15.66,11.93-7.48-.73-12.33-8.76-11.79-15.84M108.7575,104.2823c-2.78.65-4.8401,4.12-3.04,6.68,1.61,3.08,6.81,2.08,7.56-1.22,1.56-2.85-1.37-6.73-4.52-5.46h0Z" fill="#844a84"/><path d="M188.9375,102.3623c5.46-2.17,7.35,7.18,2.58,8.86-4.9901,1.21-6.36-6.61-2.58-8.86h0Z" fill="#8a4a7b"/><path d="M108.7575,104.2823c3.15-1.27,6.08,2.61,4.52,5.46-.75,3.3-5.95,4.3-7.56,1.22-1.8-2.56.26-6.03,3.04-6.68h0Z" fill="#b07aac"/><path d="M171.2175,104.8623c3.81,2.44,6.61,6.61,6.83,11.21.8201,8.61-5.6899,17.38-14.36,18.58-5.0099.79-10.3-2.04-12.33-6.69-2.54-5.97-1.02-13.13,3.16-17.98,6.04,1.4,12.26-1.01,16.7-5.12h0Z" fill="#5d4068"/><path d="M131.0274,113.3023q.3701.3,0,0h0Z" fill="#a57a74"/><path d="M68.0175,135.6024c-4.6-10.7,6.4-23.41,17.65-21.22,2.97.78,6.19,1.77,8.08,4.39,3.66,5.25,3.71,12.92-.3799,17.97-2.32,3.29-6.09,4.98-9.69,6.48-6.2,1.11-13.19-1.53-15.66-7.62M76.9275,118.4523c-2.38,1.22-4.2401,4.79-2,7,3.21,2.45,8.2599-.67,8.02-4.5699-.37-2.76-3.85-3.79-6.02-2.4301h0Z" fill="#874c82"/><path d="M76.9275,118.4523c2.17-1.36,5.65-.33,6.02,2.4301.24,3.9-4.81,7.02-8.02,4.5699-2.2401-2.21-.38-5.78,2-7h0Z" fill="#ae77a9"/><path d="M130.8475,117.9223c.76.01,2.27.03,3.02.04,3.6,1.26,7.0299,3.5,8.89,6.94,3.73,6.22,2.79,14.79-2.22,20.02-3.34,3.2-8.33,3.83-12.69,2.82-2.55-1.32-5.16-2.74-7-4.99-1.89-2.38-2.37-5.4601-3.05-8.32,3.32-1.94,6.9-3.81,9.18-7.02,2.08-2.79,2.97-6.2,3.87-9.49h0Z" fill="#573c63"/><path d="M176.5975,132.1523c1.74-2.11,2.58-6.12,5.9-6.01,2.78-.58,4.54,1.98,6.79,3.06,2.2599,1.29,5.39,2.2701,5.81,5.2701.47,5.31,1.51,10.9799-1.12,15.93-2.53,5.75-10.31,8.24-15.57,4.67-5.56-3.13-7.09-10.16-6.31-16.04.09-1.96,1.87-3.06,3.05-4.39.11,2.39-1.08,5.81,1.65,7.19,4.8,1.75,7.22-5.49,4.5099-8.58-1.3799-.94-3.12-.96-4.71-1.1h0Z" fill="#6c3460"/><path d="M100.7775,131.1123c3.9,2.06,8.08,3.49,12.39,4.37,1.4799,5.03,5.34,9.65,4.34,15.15-1.26,2.97-2.78,5.93-5.18,8.15-4.8,4.7-13.4,4.17-17.89-.69-1.93-1.97-2.89-4.59-3.86-7.09-.28-1.88-.47-3.76-.66-5.63,5.2-3.35,8.83-8.46,10.86-14.26h0Z" fill="#6c3460"/><path d="M176.5975,132.1523c1.59.14,3.33.16,4.71,1.1,2.71,3.09.29,10.33-4.5099,8.58-2.73-1.38-1.54-4.8-1.65-7.19-1.18,1.33-2.96,2.43-3.05,4.39-.78,5.88.75,12.91,6.31,16.04,5.26,3.57,13.04,1.08,15.57-4.67,2.63-4.95,1.59-10.62,1.12-15.93,1.84,4.63,2.58,9.97.81,14.74-2.02,5.3-7.59,9.59-13.47,8.39-8.16-1.08-12.61-10.12-12-17.68-.0099-3.74,3.61-5.71,6.16-7.77h0Z" fill="#874c82"/><path d="M69.9575,146.3824c4.73-.13,9.4,1.58,14.18.83.23.12.68.35.91.47.34.76.67,1.53.99,2.33,1.07,3.23,2.34,6.49,2.55,9.93-.56,7.37-6.44,14.39-13.98,15.2-5.58.82-11.2-2.82-13.18-8-3.5501-7.7,1.12-17.36,8.53-20.7599M69.9775,150.3124c-2.98,1.36-5.75,5.34-3.05,8.29,3.1299,2.29,7.6-1.1,7.44-4.63.3799-2.36-2.4-3.72-4.39-3.66h0Z" fill="#563a61"/><path d="M69.9775,150.3124c1.99-.06,4.77,1.3,4.39,3.66.16,3.53-4.3101,6.92-7.44,4.63-2.7-2.95.0699-6.93,3.05-8.29h0Z" fill="#7a5685"/></svg>