<?xml version="1.0" encoding="UTF-8"?><svg id="Layer_1" xmlns="http://www.w3.org/2000/svg" width="3.7654in" height="2.6332in" viewBox="0 0 271.1111 189.5935"><path d="M105.4135,40.7006c15.05-9.84,35.71-10.36,51.06-.88,17.38-3.29,35.83-2.1801,52.37,4.28,7.81,3.11,15.55,7.96,19.45,15.7,2.42,4.53,1.79,9.83,1.77,14.77,2.98,3.74,5.5,8.14,5.58,13.06.06,4.36.3,8.78-.44,13.1-.54,3.23-2.55,5.91-3.75,8.9-.69,5.2201.83,10.74-1.27,15.75-2.99,8.2801-10.36,14.02-18.06,17.73-15.93,7.67-34.25,9.19-51.62,6.98-10.65-1.5-21.33-4.59-30.24-10.79-2.41.7-4.9,1.08-7.27,1.91-2.9399,1.98-5.41,4.58-8.38,6.53-13.65,9.69-32.28,11.43-47.7201,5.17-11.03-4.67-20.59-13.0699-25.8899-23.9-7.29-14.21-7.6-31.9299-.28-46.2,6.39-13.21,18.87-23.15,33.0999-26.64,1.7601-.6,3.92-.54,5.25-2,6.1801-5.95,14.1501-9.83,22.4501-11.8,1.39-.2899,2.71-.86,3.89-1.6699M110.8035,39.8606c-2.9001,1.56-5.9901,3.2-7.65,6.19-6.23,1.75-12.38,4.23-17.49,8.28,8.79.3,17.4799,2.27,25.35,6.24-1.57.74-3.08,1.59-4.61,2.42-10.6799-4.84-23.2-5.8-34.37-2.12-12.11,3.8699-22.3,13.02-27.92,24.37-5.22,11.27-6.27,24.65-1.84,36.36,4.07,12.05,13.68,21.8,25.1,27.1299,15.09,6.45,33.67,4.4901,46.6801-5.66,9.21-6.87,15.52-17.32,17.89-28.51,1.93,1.11,2.65,3.05,2.96,5.13-1.38,5.63-4.51,10.57-7.23,15.61.63-.25,1.88-.75,2.51-1,1.13.89,2.11,3.02,3.72,2.77,14.05,8.9099,31.33,10.61,47.57,9.37,9.49-.4,19.06-2.11,27.7-6.1801,7.51-3.75,14.62-9.51,17.85-17.45,3.84-4.35,1.18-10.8101,3.2-15.89,1.15-2.6,1.58-5.4,1.24-8.23-.76.6699-1.52,1.33-2.27,2-.72-.94-1.44-1.88-2.15-2.8201,4.16-4.4099,6.11-11.0099,2.95-16.5499-.23.35-.7,1.04-.94,1.38-1.31-.53-2.62-1.05-3.94-1.5601.11-.42.31-1.2499.41-1.6699l-1.19.99c-.28-2.08-.31-4.1801-.25-6.27,2.28-4.33,2.55-9.89-.26-14.05-4.02-6.13-10.66-9.97-17.31-12.66-14.33-5.11-29.87-6.39-44.94-4.62-.3-.3-.89-.9-1.19-1.2-3.54.3199-7.06-2.4301-10.43-.86-9.79-4.18-20.83-4.71-31.07-1.91-2.5799-2.0101-5.5799-.18-8.08.97h0Z" fill="#3c0d0b"/><path d="M110.8035,39.8606c2.5-1.15,5.5-2.98,8.08-.97-1.56.62-3.0999,1.29-4.62,2.01,6.45.57,12.79,1.96,18.86,4.22,2.23,1.18,4.43,2.42,6.57,3.77,3.83,2.9301,7.79,5.8,11.03,9.41,1.22,1.47,2.42,2.98,3.5,4.56,2.16,3.78,4.03,7.72,5.86,11.68.45,1.1.85,2.23,1.18,3.38,2.48,11.14,1.72,23.04-2.89,33.52-1.86,4.51-4.75,8.45-7.26,12.59,8.88-4.34,15.49-12.22,20.18-20.76,5.11-10.33,6.43-22.59,3.24-33.7-3.39-12.6-12.84-23.25-24.58-28.77,3.37-1.57,6.89,1.18,10.43.86.3.3.89.9,1.19,1.2,3.06,3.06,6.14,6.12,8.84,9.51.88,1.2,1.78,2.38,2.61,3.6099,3.18,5.6901,5.63,11.88,6.66,18.34,1,6.3801.36,12.8401-.48,19.2001,13.32-1.1301,27.06-4.01,37.95-12.21,2.69-1.97,5.05-4.38,6.93-7.12-.06,2.09-.03,4.19.25,6.27-8.13,8.5099-19.66,12.37-30.83,14.99-5.1,1.33-10.42,1.36-15.54,2.5-1.12,2-1.76,4.21-2.5,6.3699,4.31-.09,8.63-.29,12.86-1.15,7.97-1.6,16.1-3.37,23.14-7.6201,5.7-3.4299,11.36-7.9299,13.65-14.41,1.32.51,2.63,1.03,3.94,1.5601-3.99,10.34-14.12,16.22-23.85,20.28-2.13.8-4.27,1.55-6.41,2.3-8.36,1.8699-16.86,3.32-25.45,3.28-1.33,1.86-2.65,3.72-3.93,5.61,13.17.81,26.59-.36,39.1-4.73,6.92-2.37,13.77-5.86,18.53-11.5701.71.9401,1.43,1.8801,2.15,2.8201.75-.67,1.51-1.3301,2.27-2,.34,2.83-.09,5.6299-1.24,8.23-2.02,5.08.64,11.54-3.2,15.89.05-.55.15-1.65.19-2.2-2.69,2.88-5.21,6-8.55,8.17-7.22,4.83-15.7,7.22-24.08,9.08-15.94,3.56-32.83,2.95-48.39-2.05-2.12-.67-4.19-1.61-6.42-1.87-2.12.71-3.93,2.0599-5.87,3.13-1.61.25-2.59-1.88-3.72-2.77,9.61-4.27,17.71-11.97,22.87-21.1,7.46-14.19,7.36-32.36-1.15-46.0699-4.94-7.28-11.31-13.96-19.49-17.52-9.04-4.3-19.45-5.69-29.26-3.56,1.6599-2.99,4.7499-4.63,7.65-6.19M218.4135,109.4206c-15.19,8.07-33.02,10.1299-49.96,8.44-3.86-.73-6.1,3.3-8.31,5.75,18.6,3.35,38.52,1.69,55.65-6.67,6.53-3.24,12.96-8.33,14.76-15.7401-4.17,2.5601-7.73,6.0201-12.14,8.22M210.5135,123.8706c-17.54,6.48-36.86,6.59-55.08,3.28-3.38.84-6.49,2.57-9.45,4.37,7.81,2.9,16.17,3.92,24.45,4.34,13.35.45,27.14-1.07,39.22-7.11,5.81-2.88,11.89-6.35,15.12-12.22-4.7,2.55-9.19,5.55-14.26,7.34h0Z" fill="#450e0c"/><path d="M118.8835,38.8906c10.24-2.8,21.28-2.27,31.07,1.91,11.74,5.52,21.19,16.17,24.58,28.77,3.19,11.11,1.87,23.37-3.24,33.7-4.69,8.54-11.3,16.42-20.18,20.76,2.51-4.14,5.4-8.08,7.26-12.59,4.61-10.48,5.37-22.38,2.89-33.52,1.44-.28,3.61.47,4.44-1.16,1.44-2.01-.44-5.3801-2.97-4.86-.99.77-1.8,1.73-2.65,2.64-1.83-3.96-3.7-7.9-5.86-11.68,1.64-1.32,4.36-3.19,2.54-5.54-1.66-2.72-4.83-1.35-6.04.98-3.24-3.61-7.2-6.48-11.03-9.41-.89-3.0399-3.76-3.77-6.57-3.77-6.07-2.26-12.4101-3.65-18.86-4.22,1.5201-.72,3.06-1.39,4.62-2.01h0Z" fill="#a44646"/><path d="M161.5735,42.8606c15.07-1.77,30.61-.4901,44.94,4.62,6.65,2.69,13.29,6.53,17.31,12.66,2.81,4.16,2.54,9.72.26,14.05-1.88,2.74-4.24,5.15-6.93,7.12-10.89,8.2-24.63,11.08-37.95,12.21.84-6.36,1.48-12.82.48-19.2001-1.03-6.46-3.48-12.65-6.66-18.34,1.82-.8399,4.35-1.1299,5.06-3.3599-.64-3.95-5.58-3.79-8.32-2.21.17.4899.49,1.4699.65,1.96-2.7-3.39-5.78-6.45-8.84-9.51M193.9035,49.1006c-1.5.06-2.6,2.22-.85,2.92,1.56,1.39,3.81.43,5.2-.74.2-2.1501-2.75-2.58-4.35-2.18M181.8335,61.5406c2.09,4.1899,9.15,4.5,11.13.15-.73-5.6-9.33-4.8-11.13-.15M209.8935,59.0806c-1.12.1899-2.04,1.02-2.14,2.18,1.07,2.77,5.47,2.89,6.81.29.25-2.29-2.91-3.18-4.67-2.47M193.9335,71.0905c-1.29.06-2.33,2.3-.9,2.84,1.49,1.4,5.43.15,4.27-2.22-1.01-.47-2.26-1.1901-3.37-.6201M210.8535,72.2306c-1.27.0699-2.4,1.1201-2.39,2.42,1.47,2.4999,6.42,2.04,6.89-.9701-.98-1.45-2.92-1.5999-4.5-1.45M188.6435,80.8906c-1.85.43-3.6,2.78-1.93,4.43,1.89,1.91,5.06,1.6,7.4.77,1.32-.46,2.66-2.29,1.54-3.5599-1.44-2.32-4.68-2.12-7.01-1.64h0Z" fill="#a94748"/><path d="M133.1235,45.1206c2.81,0,5.68.73,6.57,3.77-2.14-1.35-4.34-2.59-6.57-3.77" fill="#edd0ba"/><path d="M136.5635,99.5006c.36,2.47.56,4.95.76,7.44.88-.11,2.65-.35,3.53-.46.1,1.7.69,4.4-1.67,4.81-2.22.77-2.16-2.55-2.18-4,.01-2.61-.11-5.21-.44-7.79" fill="#edd0ba"/><path d="M85.6635,54.3306c5.11-4.05,11.2599-6.53,17.49-8.28,9.81-2.13,20.22-.74,29.26,3.56,8.18,3.56,14.55,10.2401,19.49,17.52,8.51,13.71,8.61,31.8799,1.15,46.0699-5.16,9.1301-13.26,16.8301-22.87,21.1-.63.25-1.88.75-2.51,1,2.72-5.04,5.85-9.98,7.23-15.61.91-4.1,1.63-8.24,2.1-12.4.02,1.45-.04,4.77,2.18,4,2.36-.41,1.77-3.11,1.67-4.81-.88.11-2.65.35-3.53.46-.2-2.49-.4-4.97-.76-7.44-.23-1.54-.54-3.07-.84-4.6,1.47-1.78,1.34-5.02-1.44-5.27-1.93-5.34-4.23-10.6301-7.69-15.17-3.07-4.08-6.93-7.4501-10.75-10.79,2.08-1.04,5.2299-1.46,5.82-4.16,1.2-3.9299-3.34-8.2-7.11-6.09-2.72,1.14-2.89,4.33-2.83,6.85l-.71.3c-7.87-3.97-16.56-5.94-25.35-6.24M134.5335,64.6906c-1.96,1-2.09,3.94-.46,5.2999,1.55,1.56,4.55.7201,5.07-1.4099.93-2.61-2.17-5.24-4.61-3.89M143.7435,81.0006c-2.72,2.17.87,7.18,3.57,4.46,2.7-2.21-.8-7.08-3.57-4.46h0Z" fill="#a64645"/><path d="M193.9035,49.1006c1.6-.4,4.55.0299,4.35,2.18-1.39,1.17-3.64,2.13-5.2.74-1.75-.7-.65-2.86.85-2.92h0Z" fill="#fcc7c1"/><path d="M169.7635,50.4106c2.74-1.58,7.68-1.7401,8.32,2.21-.71,2.23-3.24,2.52-5.06,3.3599-.83-1.2299-1.73-2.4099-2.61-3.6099-.16-.4901-.48-1.47-.65-1.96" fill="#f4bcb6"/><path d="M89.9335,120.1606c2.77-1.6201,6.13,1.8799,4.83,4.64-.92,2.52-4.86,2.92-6.3.67-1.2999-1.7701-.45-4.4,1.47-5.31h0Z" fill="#f4bcb6"/><path d="M111.7235,60.2706c-.06-2.52.11-5.71,2.83-6.85,3.77-2.11,8.31,2.16,7.11,6.09-.59,2.7001-3.74,3.1201-5.82,4.16-1.38-1.13-2.7801-2.23-4.12-3.4h0Z" fill="#f1bdb2"/><path d="M150.7235,58.3006c1.21-2.33,4.38-3.7,6.04-.98,1.82,2.35-.9,4.22-2.54,5.54-1.08-1.58-2.28-3.09-3.5-4.56h0Z" fill="#eeafa5"/><path d="M181.8335,61.5406c1.8-4.65,10.4-5.45,11.13.15-1.98,4.35-9.04,4.0399-11.13-.15h0Z" fill="#f6bdb4"/><path d="M72.0335,60.8706c11.17-3.68,23.6901-2.72,34.37,2.12,15.36,7.26,25.81,23.6,26.29,40.54.12,3.69-.36,7.3699-.75,11.03-2.37,11.19-8.68,21.64-17.89,28.51-13.0101,10.15-31.5901,12.11-46.6801,5.66-11.42-5.33-21.03-15.08-25.1-27.1299-4.43-11.71-3.38-25.09,1.84-36.36,5.62-11.35,15.81-20.5001,27.92-24.37M88.7635,66.9206c-2.96.98-4.21,5-2.22,7.4301,2.1,2.89,7.28,2.36,8.62-1.0101,1.83-3.75-2.65-8.1299-6.4-6.42M64.6136,72.6906c-3.1,1.5099-.4901,6.44,2.4599,4.49,3.1801-1.45.4801-6.1901-2.4599-4.49M108.8935,77.9606c-1.97.54-2.85,3.0599-1.69,4.73,1,2.26,4.46,2.2399,5.62.14,1.64-2.42-1.28-5.81-3.93-4.87M68.7435,84.9706c-3.61.74-5.09,5.34-2.92,8.2,2.45,3.8,9.3199,2.01,9.59-2.5.73-3.63-3.2101-6.91-6.67-5.7M89.3435,91.7106c1.01-.02,2.15.5499,3.1201.0299,2.03-.7799,1.28-4.7099-1.04-4.3099-2.3-.03-2.04,2.72-2.08,4.28M117.8336,94.1706c-2.47,1.76.0399,6.55,2.86,4.82,3.04-1.77.19-7.22-2.86-4.82M48.8135,100.8506c-1.66,1.8499-1.19,5.84,1.62,6.1899,2.84.3101,4.05-3.42,2.84-5.54-.68-1.74-3.2-1.89-4.46-.6499M103.6735,101.8606c-3.64,1.05-5.1,6.19-2.19,8.78,2.9,2.8499,8.56,1.1199,9.04-3.01.8-3.75-3.29-7.17-6.85-5.77M82.7935,104.0406c-1.54,1.2599-1.37,3.9301.36,4.96,1.8201,1.2801,4.8101-.08,4.8201-2.3999.42-2.69-3.27-4.3601-5.1801-2.5601M66.7135,108.8106c-1.4199,1.2-1.56,3.57-.2099,4.87,1.2899.73,3.2099.07,3.58-1.43,1.1-2-1.23-5.15-3.3701-3.44M89.9335,120.1606c-1.92.91-2.77,3.5399-1.47,5.31,1.44,2.25,5.38,1.85,6.3-.67,1.3-2.76-2.0599-6.26-4.83-4.64M112.9235,120.1606c-2.31.86-1.96,4.3599.42,4.89,3.01-.42,2.8-6.0701-.42-4.89M57.5935,122.6506c-3.2499,2.23.08,7.89,3.6201,5.67,3.9-1.9601-.13-8.38-3.6201-5.67M74.5235,131.6806c-3.8,2.02-2.58,9.06,1.92,9.2,3.3199.4,6.46-2.91,5.43-6.21-.62-3.23-4.64-4.47-7.35-2.99M96.6135,137.7506c-1.5.79-1.99,3.13-.4,4.1,1.6099,1.5399,4.37-.29,4.05-2.3301-.47-1.53-2.14-2.37-3.65-1.77h0Z" fill="#a84546"/><path d="M209.8935,59.0806c1.76-.71,4.92.1799,4.67,2.47-1.34,2.6-5.74,2.48-6.81-.29.1-1.16,1.02-1.9901,2.14-2.18h0Z" fill="#f8b5af"/><path d="M111.0135,60.5706l.71-.3c1.34,1.17,2.74,2.27,4.12,3.4,3.82,3.34,7.68,6.71,10.75,10.79,3.46,4.5399,5.76,9.83,7.69,15.17.26,1.81.75,3.57,1.44,5.27.3,1.53.61,3.06.84,4.6.33,2.58.45,5.18.44,7.79-.47,4.16-1.19,8.3-2.1,12.4-.31-2.08-1.03-4.02-2.96-5.13.39-3.66.87-7.34.75-11.03-.48-16.94-10.93-33.28-26.29-40.54,1.53-.83,3.04-1.68,4.61-2.42h0Z" fill="#460e0b"/><path d="M134.5335,64.6906c2.44-1.35,5.54,1.28,4.61,3.89-.52,2.13-3.52,2.9699-5.07,1.4099-1.63-1.3599-1.5-4.2999.46-5.2999h0Z" fill="#f6b5ac"/><path d="M88.7635,66.9206c3.75-1.71,8.23,2.67,6.4,6.42-1.34,3.3701-6.52,3.9-8.62,1.0101-1.99-2.4301-.74-6.45,2.22-7.4301h0Z" fill="#f3c0b6"/><path d="M193.9335,71.0905c1.11-.57,2.36.15,3.37.6201,1.16,2.37-2.78,3.62-4.27,2.22-1.43-.54-.39-2.78.9-2.84h0Z" fill="#ea9c9b"/><path d="M162.7335,71.9005c2.53-.52,4.41,2.85,2.97,4.86-.83,1.63-3,.88-4.44,1.16-.33-1.15-.73-2.28-1.18-3.38.85-.91,1.66-1.87,2.65-2.64h0Z" fill="#f4bbb4"/><path d="M210.8535,72.2306c1.58-.15,3.52,0,4.5,1.45-.47,3.0101-5.42,3.47-6.89.9701-.01-1.3,1.12-2.3501,2.39-2.42h0Z" fill="#ffc3bc"/><path d="M64.6136,72.6906c2.94-1.7001,5.64,3.04,2.4599,4.49-2.95,1.95-5.5599-2.98-2.4599-4.49h0Z" fill="#f2a9a3"/><path d="M108.8935,77.9606c2.65-.94,5.57,2.45,3.93,4.87-1.16,2.0999-4.62,2.12-5.62-.14-1.16-1.67-.28-4.19,1.69-4.73h0Z" fill="#f5b8b1"/><path d="M224.3335,80.4606l1.19-.99c-.1.42-.3,1.2499-.41,1.6699-2.29,6.48-7.95,10.98-13.65,14.41-7.04,4.2501-15.17,6.0201-23.14,7.6201-4.2299.86-8.55,1.06-12.86,1.15.74-2.1599,1.38-4.3699,2.5-6.3699,5.12-1.14,10.44-1.17,15.54-2.5,11.17-2.62,22.7-6.48,30.83-14.99h0Z" fill="#813031"/><path d="M143.7435,81.0006c2.77-2.62,6.27,2.25,3.57,4.46-2.7,2.72-6.29-2.29-3.57-4.46h0Z" fill="#fbbab2"/><path d="M188.6435,80.8906c2.33-.48,5.57-.68,7.01,1.64,1.12,1.27-.22,3.0999-1.54,3.5599-2.34.83-5.51,1.14-7.4-.77-1.67-1.65.08-4,1.93-4.43h0Z" fill="#f7bbb2"/><path d="M229.0535,82.7006c.24-.34.71-1.03.94-1.38,3.16,5.54,1.21,12.14-2.95,16.5499-4.76,5.7101-11.61,9.2001-18.53,11.5701-12.51,4.37-25.93,5.54-39.1,4.73,1.28-1.89,2.6-3.75,3.93-5.61,8.59.04,17.09-1.41,25.45-3.28,2.35.29,6.06,1.04,6.41-2.3,9.73-4.06,19.86-9.94,23.85-20.28h0Z" fill="#a34747"/><path d="M68.7435,84.9706c3.46-1.21,7.4,2.0699,6.67,5.7-.2701,4.51-7.14,6.3-9.59,2.5-2.17-2.86-.69-7.46,2.92-8.2h0Z" fill="#f4bdb4"/><path d="M89.3435,91.7106c.04-1.56-.22-4.31,2.08-4.28,2.32-.4,3.07,3.53,1.04,4.3099-.97.52-2.11-.0499-3.1201-.0299h0Z" fill="#f2a5a1"/><path d="M134.2835,89.6306c2.78.25,2.91,3.49,1.44,5.27-.69-1.7-1.18-3.46-1.44-5.27h0Z" fill="#e19f9c"/><path d="M117.8336,94.1706c3.05-2.4,5.9,3.05,2.86,4.82-2.82,1.73-5.33-3.06-2.86-4.82h0Z" fill="#fabeb6"/><path d="M48.8135,100.8506c1.26-1.2401,3.78-1.0901,4.46.6499,1.21,2.1201,0,5.8501-2.84,5.54-2.81-.35-3.28-4.34-1.62-6.1899h0Z" fill="#f6bfba"/><path d="M103.6735,101.8606c3.56-1.4,7.65,2.02,6.85,5.77-.48,4.1299-6.14,5.8599-9.04,3.01-2.91-2.59-1.45-7.73,2.19-8.78h0Z" fill="#f2b3ab"/><path d="M218.4135,109.4206c4.41-2.2,7.97-5.66,12.14-8.22-1.8,7.41-8.23,12.5001-14.76,15.7401-17.13,8.36-37.05,10.02-55.65,6.67,2.21-2.45,4.45-6.48,8.31-5.75,16.94,1.6899,34.77-.37,49.96-8.44h0Z" fill="#7e2f30"/><path d="M82.7935,104.0406c1.91-1.8,5.6-.1299,5.1801,2.5601-.01,2.3199-3,3.68-4.8201,2.3999-1.73-1.0299-1.9-3.7-.36-4.96h0Z" fill="#f5b5b1"/><path d="M198.7935,105.2806c2.14-.75,4.28-1.5,6.41-2.3-.35,3.34-4.06,2.59-6.41,2.3h0Z" fill="#db9697"/><path d="M66.7135,108.8106c2.14-1.71,4.47,1.44,3.3701,3.44-.3701,1.5-2.29,2.16-3.58,1.43-1.3501-1.3-1.21-3.67.2099-4.87h0Z" fill="#f9b8b4"/><path d="M210.5135,123.8706c5.07-1.79,9.56-4.79,14.26-7.34-3.23,5.87-9.31,9.34-15.12,12.22-12.08,6.04-25.87,7.56-39.22,7.11-8.28-.42-16.64-1.44-24.45-4.34,2.96-1.8,6.07-3.53,9.45-4.37,18.22,3.31,37.54,3.2,55.08-3.28h0Z" fill="#a94a49"/><path d="M112.9235,120.1606c3.22-1.1801,3.43,4.4699.42,4.89-2.38-.53-2.73-4.03-.42-4.89h0Z" fill="#f9afa9"/><path d="M218.6635,128.7805c3.34-2.17,5.86-5.29,8.55-8.17-.04.55-.14,1.65-.19,2.2-3.23,7.9399-10.34,13.7-17.85,17.45-8.64,4.0701-18.21,5.78-27.7,6.1801-16.24,1.24-33.52-.4601-47.57-9.37,1.94-1.0701,3.75-2.42,5.87-3.13,2.23.2599,4.3,1.2,6.42,1.87,15.56,5,32.45,5.61,48.39,2.05,8.38-1.86,16.86-4.25,24.08-9.08h0Z" fill="#7f2f30"/><path d="M57.5935,122.6506c3.4901-2.71,7.52,3.7099,3.6201,5.67-3.54,2.22-6.87-3.44-3.6201-5.67h0Z" fill="#f2ada9"/><path d="M74.5235,131.6806c2.71-1.48,6.73-.24,7.35,2.99,1.03,3.3-2.11,6.61-5.43,6.21-4.5-.14-5.72-7.18-1.92-9.2h0Z" fill="#f3b5ae"/><path d="M96.6135,137.7506c1.51-.6,3.1801.24,3.65,1.77.32,2.04-2.4401,3.87-4.05,2.3301-1.59-.97-1.1-3.3101.4-4.1h0Z" fill="#f8bdb9"/></svg>