<?xml version="1.0" encoding="UTF-8"?><svg id="Layer_1" xmlns="http://www.w3.org/2000/svg" width="13.7586in" height="13.7586in" xmlns:xlink="http://www.w3.org/1999/xlink" viewBox="0 0 990.6223 990.6223"><defs><clipPath id="clippath"><rect width="990.6223" height="990.6223" fill="none"/></clipPath></defs><g clip-path="url(#clippath)"><rect width="990.6223" height="990.6223" fill="none"/><path d="M990.6222,918.6223c67.8778,3.5556,157.3451,23.1111,226.167,23.1111,40.3775,0,67.0441-15.1111,59.933-33.7778" fill="none" stroke="#783c1c" stroke-linecap="round" stroke-linejoin="round" stroke-width="4"/><rect x="495.3111" y="742.9667" width="495.3112" height="495.3112" fill="#af6a42"/><line x1="626.5905" y1="827.9556" x2="768.3172" y2="827.9556" fill="none" stroke="#783c1c" stroke-linecap="round" stroke-linejoin="round" stroke-width="4"/><path d="M919.7589,860.063s256.4368,17.3333,312.8223-14.7741" fill="none" stroke="#783c1c" stroke-linecap="round" stroke-linejoin="round" stroke-width="4"/><path d="M834.1633,854.2271c-39.5556-11.5556-74.2222,23.5556-116.8889,30.6667-42.6667,7.1111-118.2222,0-139.5556,0" fill="none" stroke="#783c1c" stroke-linecap="round" stroke-linejoin="round" stroke-width="4"/><path d="M795.9411,881.3382c56.4444,20,86.8517-28.8005,110.6667-38.6667,31.1111-12.8889,39.5556-7.5556,64.8889-7.5556" fill="none" stroke="#783c1c" stroke-linecap="round" stroke-linejoin="round" stroke-width="4"/><path d="M812.9457,980.408c47.7671,0,95.0613-17.4988,114.9249-17.4988s24.6021,16.2346,20.5003,20.3365" fill="none" stroke="#783c1c" stroke-linecap="round" stroke-linejoin="round" stroke-width="4"/><path d="M1158.7317,988.2253c-56.8889-4.9797-97.9271-14.7044-120.1197-14.8585-41.6581-.2894-44.3248,24.4522-108.0024,27.7646-19.8367,1.0319-24.6021-16.2346-20.5003-20.3365" fill="none" stroke="#783c1c" stroke-linecap="round" stroke-linejoin="round" stroke-width="4"/><path d="M495.3111,918.6223c67.8778,3.5556,157.3451,23.1111,226.167,23.1111,40.3775,0,67.0441-15.1111,59.933-33.7778" fill="none" stroke="#783c1c" stroke-linecap="round" stroke-linejoin="round" stroke-width="4"/><path d="M705.9411,789.289c68.3589,5.3333,117.6922,41.3333,169.6922,28,52-13.3333,84-28,154.6667-28" fill="none" stroke="#783c1c" stroke-linecap="round" stroke-linejoin="round" stroke-width="4"/><path d="M713.3983,990.6223c61.5255-4.2848,127.5683-64.8889,163.1239-73.7778,30.8418-7.7105,48.2418-3.9868,114.1,1.4873" fill="none" stroke="#783c1c" stroke-linecap="round" stroke-linejoin="round" stroke-width="4"/><rect x="0" y="742.9667" width="495.3112" height="495.3112" fill="#af6a42"/><line x1="131.2794" y1="827.9556" x2="273.0061" y2="827.9556" fill="none" stroke="#783c1c" stroke-linecap="round" stroke-linejoin="round" stroke-width="4"/><path d="M424.4477,860.063s256.4368,17.3333,312.8223-14.7741" fill="none" stroke="#783c1c" stroke-linecap="round" stroke-linejoin="round" stroke-width="4"/><path d="M338.8522,854.2271c-39.5556-11.5556-74.2222,23.5556-116.8889,30.6667-42.6667,7.1111-118.2222,0-139.5556,0" fill="none" stroke="#783c1c" stroke-linecap="round" stroke-linejoin="round" stroke-width="4"/><path d="M300.63,881.3382c56.4444,20,86.8517-28.8005,110.6667-38.6667,31.1111-12.8889,39.5556-7.5556,64.8889-7.5556" fill="none" stroke="#783c1c" stroke-linecap="round" stroke-linejoin="round" stroke-width="4"/><path d="M317.6346,980.408c47.7671,0,95.0613-17.4988,114.9249-17.4988s24.6021,16.2346,20.5003,20.3365" fill="none" stroke="#783c1c" stroke-linecap="round" stroke-linejoin="round" stroke-width="4"/><path d="M663.4205,988.2253c-56.8889-4.9797-97.9271-14.7044-120.1197-14.8585-41.6581-.2894-44.3248,24.4522-108.0024,27.7646-19.8367,1.0319-24.6021-16.2346-20.5003-20.3365" fill="none" stroke="#783c1c" stroke-linecap="round" stroke-linejoin="round" stroke-width="4"/><path d="M0,918.6223c67.8778,3.5556,157.3451,23.1111,226.167,23.1111,40.3775,0,67.0441-15.1111,59.933-33.7778" fill="none" stroke="#783c1c" stroke-linecap="round" stroke-linejoin="round" stroke-width="4"/><path d="M210.63,789.289c68.3589,5.3333,117.6922,41.3333,169.6922,28,52-13.3333,84-28,154.6667-28" fill="none" stroke="#783c1c" stroke-linecap="round" stroke-linejoin="round" stroke-width="4"/><path d="M218.0872,990.6223c61.5255-4.2848,127.5683-64.8889,163.1239-73.7778,30.8418-7.7105,48.2418-3.9868,114.1,1.4873" fill="none" stroke="#783c1c" stroke-linecap="round" stroke-linejoin="round" stroke-width="4"/><path d="M-70.8634,860.063s256.4368,17.3333,312.8223-14.7741" fill="none" stroke="#783c1c" stroke-linecap="round" stroke-linejoin="round" stroke-width="4"/><path d="M168.1094,988.2253c-56.8889-4.9797-97.9271-14.7044-120.1197-14.8585-41.6581-.2894-44.3248,24.4522-108.0024,27.7646-19.8367,1.0319-24.6021-16.2346-20.5003-20.3365" fill="none" stroke="#783c1c" stroke-linecap="round" stroke-linejoin="round" stroke-width="4"/><path d="M-284.6812,789.289c68.3589,5.3333,117.6922,41.3333,169.6922,28,52-13.3333,84-28,154.6667-28" fill="none" stroke="#783c1c" stroke-linecap="round" stroke-linejoin="round" stroke-width="4"/><path d="M-277.224,990.6223c61.5255-4.2848,127.5683-64.8889,163.1239-73.7778,30.8418-7.7105,48.2418-3.9868,114.1,1.4873" fill="none" stroke="#783c1c" stroke-linecap="round" stroke-linejoin="round" stroke-width="4"/><rect x="742.9667" y="247.6556" width="495.3112" height="495.3112" fill="#af6a42"/><line x1="950.982" y1="760.9772" x2="1212.6558" y2="760.9772" fill="none" stroke="#783c1c" stroke-linecap="round" stroke-linejoin="round" stroke-width="4"/><line x1="874.2461" y1="332.6445" x2="1015.9728" y2="332.6445" fill="none" stroke="#783c1c" stroke-linecap="round" stroke-linejoin="round" stroke-width="4"/><path d="M1081.8189,358.916c-39.5556-11.5556-74.2222,23.5556-116.8889,30.6667-42.6667,7.1111-118.2222,0-139.5556,0" fill="none" stroke="#783c1c" stroke-linecap="round" stroke-linejoin="round" stroke-width="4"/><path d="M789.0667,599.3111c89.7778,0,178.6667-32.8889,216-32.8889s46.2395,30.5128,38.53,38.2222" fill="none" stroke="#783c1c" stroke-linecap="round" stroke-linejoin="round" stroke-width="4"/><path d="M1226.2147,605.3716c-89.7778,0-178.6667,32.8889-216,32.8889s-46.2395-30.5128-38.53-38.2222" fill="none" stroke="#783c1c" stroke-linecap="round" stroke-linejoin="round" stroke-width="4"/><path d="M742.9667,423.3111c67.8778,3.5556,157.3451,23.1111,226.167,23.1111,40.3775,0,67.0441-15.1111,59.933-33.7778" fill="none" stroke="#783c1c" stroke-linecap="round" stroke-linejoin="round" stroke-width="4"/><path d="M758.8445,524.6445c96.8889-24.8889,121.7778,17.7778,205.3333,17.7778s134.3078-37.9149,167.1967-39.9144" fill="none" stroke="#783c1c" stroke-linecap="round" stroke-linejoin="round" stroke-width="4"/><path d="M953.5967,293.9778c68.3589,5.3333,117.6922,41.3333,169.6922,28,52-13.3333,84-28,154.6667-28" fill="none" stroke="#783c1c" stroke-linecap="round" stroke-linejoin="round" stroke-width="4"/><path d="M961.0539,495.3112c61.5255-4.2848,127.5683-64.8889,163.1239-73.7778,30.8418-7.7105,48.2418-3.9868,114.1,1.4873" fill="none" stroke="#783c1c" stroke-linecap="round" stroke-linejoin="round" stroke-width="4"/><rect x="247.6555" y="247.6556" width="495.3112" height="495.3112" fill="#af6a42"/><line x1="612.1298" y1="650.8667" x2="873.8035" y2="650.8667" fill="none" stroke="#783c1c" stroke-linecap="round" stroke-linejoin="round" stroke-width="4"/><line x1="455.6709" y1="760.9772" x2="717.3446" y2="760.9772" fill="none" stroke="#783c1c" stroke-linecap="round" stroke-linejoin="round" stroke-width="4"/><line x1="378.935" y1="332.6445" x2="520.6617" y2="332.6445" fill="none" stroke="#783c1c" stroke-linecap="round" stroke-linejoin="round" stroke-width="4"/><line x1="672.1033" y1="566.4223" x2="813.83" y2="566.4223" fill="none" stroke="#783c1c" stroke-linecap="round" stroke-linejoin="round" stroke-width="4"/><path d="M672.1033,364.7519s256.4368,17.3333,312.8223-14.7741" fill="none" stroke="#783c1c" stroke-linecap="round" stroke-linejoin="round" stroke-width="4"/><path d="M586.5078,358.916c-39.5556-11.5556-74.2222,23.5556-116.8889,30.6667-42.6667,7.1111-118.2222,0-139.5556,0" fill="none" stroke="#783c1c" stroke-linecap="round" stroke-linejoin="round" stroke-width="4"/><path d="M548.2855,386.0271c56.4444,20,86.8517-28.8005,110.6667-38.6667,31.1111-12.8889,39.5556-7.5556,64.8889-7.5556" fill="none" stroke="#783c1c" stroke-linecap="round" stroke-linejoin="round" stroke-width="4"/><path d="M293.7555,599.3111c89.7778,0,178.6667-32.8889,216-32.8889s46.2395,30.5128,38.53,38.2222" fill="none" stroke="#783c1c" stroke-linecap="round" stroke-linejoin="round" stroke-width="4"/><path d="M730.9036,605.3716c-89.7778,0-178.6667,32.8889-216,32.8889s-46.2395-30.5128-38.53-38.2222" fill="none" stroke="#783c1c" stroke-linecap="round" stroke-linejoin="round" stroke-width="4"/><path d="M565.2902,485.0969c47.7671,0,95.0613-17.4988,114.9249-17.4988s24.6021,16.2346,20.5003,20.3365" fill="none" stroke="#783c1c" stroke-linecap="round" stroke-linejoin="round" stroke-width="4"/><path d="M911.0761,492.9142c-56.8889-4.9797-97.9271-14.7044-120.1197-14.8585-41.6581-.2894-44.3248,24.4522-108.0024,27.7646-19.8367,1.0319-24.6021-16.2346-20.5003-20.3365" fill="none" stroke="#783c1c" stroke-linecap="round" stroke-linejoin="round" stroke-width="4"/><path d="M247.6555,423.3111c67.8778,3.5556,157.3451,23.1111,226.167,23.1111,40.3775,0,67.0441-15.1111,59.933-33.7778" fill="none" stroke="#783c1c" stroke-linecap="round" stroke-linejoin="round" stroke-width="4"/><path d="M263.5333,524.6445c96.8889-24.8889,121.7778,17.7778,205.3333,17.7778s134.3078-37.9149,167.1967-39.9144" fill="none" stroke="#783c1c" stroke-linecap="round" stroke-linejoin="round" stroke-width="4"/><path d="M576.9411,725.6739c67.5556,0,163.5556-32,225.7778-45.3333,62.2222-13.3333,107.5556,11.5556,96,38.2222" fill="none" stroke="#783c1c" stroke-linecap="round" stroke-linejoin="round" stroke-width="4"/><path d="M794.9633,712.3406c-23.3346,31.1335,60.717,66.6667,112.0141,38.2222,51.2971-28.4444,117.9637-49.411,143.7415-49.411" fill="none" stroke="#783c1c" stroke-linecap="round" stroke-linejoin="round" stroke-width="4"/><path d="M821.8509,706.4851c-18.7116,18.7116,41.7778,47.5556,56.8889,28s-32-52.8889-56.8889-28Z" fill="none" stroke="#783c1c" stroke-linecap="round" stroke-linejoin="round" stroke-width="4"/><path d="M458.2855,293.9778c68.3589,5.3333,117.6922,41.3333,169.6922,28,52-13.3333,84-28,154.6667-28" fill="none" stroke="#783c1c" stroke-linecap="round" stroke-linejoin="round" stroke-width="4"/><path d="M465.7428,495.3112c61.5255-4.2848,127.5683-64.8889,163.1239-73.7778,30.8418-7.7105,48.2418-3.9868,114.1,1.4873" fill="none" stroke="#783c1c" stroke-linecap="round" stroke-linejoin="round" stroke-width="4"/><rect x="-247.6557" y="247.6556" width="495.3112" height="495.3112" fill="#af6a42"/><line x1="116.8186" y1="650.8667" x2="378.4924" y2="650.8667" fill="none" stroke="#783c1c" stroke-linecap="round" stroke-linejoin="round" stroke-width="4"/><line x1="-39.6403" y1="760.9772" x2="222.0335" y2="760.9772" fill="none" stroke="#783c1c" stroke-linecap="round" stroke-linejoin="round" stroke-width="4"/><line x1="-116.3762" y1="332.6445" x2="25.3505" y2="332.6445" fill="none" stroke="#783c1c" stroke-linecap="round" stroke-linejoin="round" stroke-width="4"/><line x1="176.7922" y1="566.4223" x2="318.5189" y2="566.4223" fill="none" stroke="#783c1c" stroke-linecap="round" stroke-linejoin="round" stroke-width="4"/><path d="M176.7922,364.7519s256.4368,17.3333,312.8223-14.7741" fill="none" stroke="#783c1c" stroke-linecap="round" stroke-linejoin="round" stroke-width="4"/><path d="M91.1966,358.916c-39.5556-11.5556-74.2222,23.5556-116.8889,30.6667-42.6667,7.1111-118.2222,0-139.5556,0" fill="none" stroke="#783c1c" stroke-linecap="round" stroke-linejoin="round" stroke-width="4"/><path d="M52.9744,386.0271c56.4444,20,86.8517-28.8005,110.6667-38.6667,31.1111-12.8889,39.5556-7.5556,64.8889-7.5556" fill="none" stroke="#783c1c" stroke-linecap="round" stroke-linejoin="round" stroke-width="4"/><path d="M-201.5556,599.3111c89.7778,0,178.6667-32.8889,216-32.8889s46.2395,30.5128,38.53,38.2222" fill="none" stroke="#783c1c" stroke-linecap="round" stroke-linejoin="round" stroke-width="4"/><path d="M235.5924,605.3716c-89.7778,0-178.6667,32.8889-216,32.8889s-46.2395-30.5128-38.53-38.2222" fill="none" stroke="#783c1c" stroke-linecap="round" stroke-linejoin="round" stroke-width="4"/><path d="M69.979,485.0969c47.7671,0,95.0613-17.4988,114.9249-17.4988s24.6021,16.2346,20.5003,20.3365" fill="none" stroke="#783c1c" stroke-linecap="round" stroke-linejoin="round" stroke-width="4"/><path d="M415.7649,492.9142c-56.8889-4.9797-97.9271-14.7044-120.1197-14.8585-41.6581-.2894-44.3248,24.4522-108.0024,27.7646-19.8367,1.0319-24.6021-16.2346-20.5003-20.3365" fill="none" stroke="#783c1c" stroke-linecap="round" stroke-linejoin="round" stroke-width="4"/><path d="M-247.6557,423.3111c67.8778,3.5556,157.3451,23.1111,226.167,23.1111,40.3775,0,67.0441-15.1111,59.933-33.7778" fill="none" stroke="#783c1c" stroke-linecap="round" stroke-linejoin="round" stroke-width="4"/><path d="M-231.7778,524.6445c96.8889-24.8889,121.7778,17.7778,205.3333,17.7778s134.3078-37.9149,167.1967-39.9144" fill="none" stroke="#783c1c" stroke-linecap="round" stroke-linejoin="round" stroke-width="4"/><path d="M81.63,725.6739c67.5556,0,163.5556-32,225.7778-45.3333,62.2222-13.3333,107.5556,11.5556,96,38.2222" fill="none" stroke="#783c1c" stroke-linecap="round" stroke-linejoin="round" stroke-width="4"/><path d="M299.6521,712.3406c-23.3346,31.1335,60.717,66.6667,112.0141,38.2222,51.2971-28.4444,117.9637-49.411,143.7415-49.411" fill="none" stroke="#783c1c" stroke-linecap="round" stroke-linejoin="round" stroke-width="4"/><path d="M326.5398,706.4851c-18.7116,18.7116,41.7778,47.5556,56.8889,28s-32-52.8889-56.8889-28Z" fill="none" stroke="#783c1c" stroke-linecap="round" stroke-linejoin="round" stroke-width="4"/><path d="M-37.0256,293.9778c68.3589,5.3333,117.6922,41.3333,169.6922,28,52-13.3333,84-28,154.6667-28" fill="none" stroke="#783c1c" stroke-linecap="round" stroke-linejoin="round" stroke-width="4"/><path d="M-29.5684,495.3112c61.5255-4.2848,127.5683-64.8889,163.1239-73.7778,30.8418-7.7105,48.2418-3.9868,114.1,1.4873" fill="none" stroke="#783c1c" stroke-linecap="round" stroke-linejoin="round" stroke-width="4"/><path d="M-195.659,712.3406c-23.3346,31.1335,60.717,66.6667,112.0141,38.2222,51.2971-28.4444,117.9637-49.411,143.7415-49.411" fill="none" stroke="#783c1c" stroke-linecap="round" stroke-linejoin="round" stroke-width="4"/><rect x="495.3111" y="-247.6556" width="495.3112" height="495.3112" fill="#af6a42"/><line x1="859.7854" y1="155.5555" x2="1121.4591" y2="155.5555" fill="none" stroke="#783c1c" stroke-linecap="round" stroke-linejoin="round" stroke-width="4"/><line x1="703.3265" y1="265.6661" x2="965.0002" y2="265.6661" fill="none" stroke="#783c1c" stroke-linecap="round" stroke-linejoin="round" stroke-width="4"/><line x1="919.7589" y1="71.1111" x2="1061.4856" y2="71.1111" fill="none" stroke="#783c1c" stroke-linecap="round" stroke-linejoin="round" stroke-width="4"/><path d="M541.4111,104c89.7778,0,178.6667-32.8889,216-32.8889s46.2395,30.5128,38.53,38.2222" fill="none" stroke="#783c1c" stroke-linecap="round" stroke-linejoin="round" stroke-width="4"/><path d="M978.5591,110.0605c-89.7778,0-178.6667,32.8889-216,32.8889s-46.2395-30.5128-38.53-38.2222" fill="none" stroke="#783c1c" stroke-linecap="round" stroke-linejoin="round" stroke-width="4"/><path d="M1158.7317-2.397c-56.8889-4.9797-97.9271-14.7044-120.1197-14.8585-41.6581-.2894-44.3248,24.4522-108.0024,27.7646-19.8367,1.0319-24.6021-16.2346-20.5003-20.3365" fill="none" stroke="#783c1c" stroke-linecap="round" stroke-linejoin="round" stroke-width="4"/><path d="M511.1889,29.3333c96.8889-24.8889,121.7778,17.7778,205.3333,17.7778S850.83,9.1962,883.7189,7.1967" fill="none" stroke="#783c1c" stroke-linecap="round" stroke-linejoin="round" stroke-width="4"/><path d="M824.5967,230.3627c67.5556,0,163.5556-32,225.7778-45.3333,62.2222-13.3333,107.5556,11.5556,96,38.2222" fill="none" stroke="#783c1c" stroke-linecap="round" stroke-linejoin="round" stroke-width="4"/><path d="M713.3983,0c61.5255-4.2848,127.5683-64.8889,163.1239-73.7778,30.8418-7.7105,48.2418-3.9868,114.1,1.4873" fill="none" stroke="#783c1c" stroke-linecap="round" stroke-linejoin="round" stroke-width="4"/><rect x="0" y="-247.6556" width="495.3112" height="495.3112" fill="#af6a42"/><line x1="364.4742" y1="155.5555" x2="626.148" y2="155.5555" fill="none" stroke="#783c1c" stroke-linecap="round" stroke-linejoin="round" stroke-width="4"/><line x1="208.0153" y1="265.6661" x2="469.6891" y2="265.6661" fill="none" stroke="#783c1c" stroke-linecap="round" stroke-linejoin="round" stroke-width="4"/><line x1="424.4477" y1="71.1111" x2="566.1744" y2="71.1111" fill="none" stroke="#783c1c" stroke-linecap="round" stroke-linejoin="round" stroke-width="4"/><path d="M46.1,104c89.7778,0,178.6667-32.8889,216-32.8889s46.2395,30.5128,38.53,38.2222" fill="none" stroke="#783c1c" stroke-linecap="round" stroke-linejoin="round" stroke-width="4"/><path d="M483.248,110.0605c-89.7778,0-178.6667,32.8889-216,32.8889s-46.2395-30.5128-38.53-38.2222" fill="none" stroke="#783c1c" stroke-linecap="round" stroke-linejoin="round" stroke-width="4"/><path d="M663.4205-2.397c-56.8889-4.9797-97.9271-14.7044-120.1197-14.8585-41.6581-.2894-44.3248,24.4522-108.0024,27.7646-19.8367,1.0319-24.6021-16.2346-20.5003-20.3365" fill="none" stroke="#783c1c" stroke-linecap="round" stroke-linejoin="round" stroke-width="4"/><path d="M15.8777,29.3333c96.8889-24.8889,121.7778,17.7778,205.3333,17.7778S355.5189,9.1962,388.4077,7.1967" fill="none" stroke="#783c1c" stroke-linecap="round" stroke-linejoin="round" stroke-width="4"/><path d="M329.2855,230.3627c67.5556,0,163.5556-32,225.7778-45.3333,62.2222-13.3333,107.5556,11.5556,96,38.2222" fill="none" stroke="#783c1c" stroke-linecap="round" stroke-linejoin="round" stroke-width="4"/><path d="M547.3077,217.0294c-23.3346,31.1335,60.717,66.6667,112.0141,38.2222,51.2971-28.4444,117.9637-49.411,143.7415-49.411" fill="none" stroke="#783c1c" stroke-linecap="round" stroke-linejoin="round" stroke-width="4"/><path d="M574.1954,211.174c-18.7116,18.7116,41.7778,47.5556,56.8889,28s-32-52.8889-56.8889-28Z" fill="none" stroke="#783c1c" stroke-linecap="round" stroke-linejoin="round" stroke-width="4"/><path d="M218.0872,0c61.5255-4.2848,127.5683-64.8889,163.1239-73.7778,30.8418-7.7105,48.2418-3.9868,114.1,1.4873" fill="none" stroke="#783c1c" stroke-linecap="round" stroke-linejoin="round" stroke-width="4"/><line x1="-130.8369" y1="155.5555" x2="130.8368" y2="155.5555" fill="none" stroke="#783c1c" stroke-linecap="round" stroke-linejoin="round" stroke-width="4"/><line x1="-70.8634" y1="71.1111" x2="70.8633" y2="71.1111" fill="none" stroke="#783c1c" stroke-linecap="round" stroke-linejoin="round" stroke-width="4"/><path d="M168.1094-2.397c-56.8889-4.9797-97.9271-14.7044-120.1197-14.8585C6.3316-17.5449,3.6649,7.1967-60.0127,10.5091c-19.8367,1.0319-24.6021-16.2346-20.5003-20.3365" fill="none" stroke="#783c1c" stroke-linecap="round" stroke-linejoin="round" stroke-width="4"/><path d="M-166.0256,230.3627c67.5556,0,163.5556-32,225.7778-45.3333,62.2222-13.3333,107.5556,11.5556,96,38.2222" fill="none" stroke="#783c1c" stroke-linecap="round" stroke-linejoin="round" stroke-width="4"/><path d="M51.9965,217.0294c-23.3346,31.1335,60.717,66.6667,112.0141,38.2222,51.2971-28.4444,117.9637-49.411,143.7415-49.411" fill="none" stroke="#783c1c" stroke-linecap="round" stroke-linejoin="round" stroke-width="4"/><path d="M78.8842,211.174c-18.7116,18.7116,41.7778,47.5556,56.8889,28s-32-52.8889-56.8889-28Z" fill="none" stroke="#783c1c" stroke-linecap="round" stroke-linejoin="round" stroke-width="4"/><path d="M-277.224,0c61.5255-4.2848,127.5683-64.8889,163.1239-73.7778C-83.2583-81.4882-65.8583-77.7645-.0001-72.2905" fill="none" stroke="#783c1c" stroke-linecap="round" stroke-linejoin="round" stroke-width="4"/></g></svg>